<svg xmlns="http://www.w3.org/2000/svg" width="199" height="42" viewBox="0 0 199 42" fill="none"><path d="M19.444 30.8161C22.7481 30.2335 26.0518 29.6488 29.3552 29.0621L29.4483 29.0422L24.3501 22.9782C21.5463 19.6431 19.2522 16.9014 19.2522 16.8858C19.2522 16.8559 24.5163 2.35956 24.546 2.30788C24.5558 2.2908 28.1382 8.47565 33.2299 17.3008C37.9968 25.5627 41.9269 32.3748 41.9634 32.4386L42.0298 32.5546L25.8281 32.5524L9.62611 32.5503L19.444 30.8161ZM81.5763 29.3495C79.1099 29.1915 77.6757 27.7872 77.2956 25.1585C77.1944 24.4594 77.194 24.441 77.1837 19.9017L77.1737 15.5081H79.3568L79.3653 19.7576C79.373 23.5879 79.3779 24.037 79.4144 24.3063C79.563 25.3998 79.859 26.1353 80.3625 26.6629C80.7657 27.0853 81.2376 27.3328 81.8909 27.4639C82.1992 27.5259 83.076 27.5259 83.3568 27.4641C84.019 27.3185 84.5499 27.0302 85.0182 26.5621C85.5521 26.0287 85.9467 25.2717 86.1378 24.416L86.2021 24.1273L86.2094 19.8417L86.2164 15.5561H88.4452V29.0303H86.2395V27.9615C86.2395 27.2352 86.2316 26.895 86.2147 26.9008C86.201 26.9053 86.1442 26.992 86.0887 27.0934C85.7086 27.7864 85.0754 28.4204 84.3816 28.8022C83.5499 29.2598 82.716 29.4225 81.5763 29.3495ZM106.609 29.3388C105.738 29.2733 104.821 28.9739 104.072 28.5103C102.493 27.5338 101.559 25.9236 101.285 23.7077C101.19 22.9411 101.179 21.9109 101.258 21.2594C101.435 19.8037 102.007 18.3745 102.821 17.3541C103.03 17.0928 103.504 16.6189 103.765 16.4103C104.47 15.8472 105.294 15.4536 106.175 15.2599C106.686 15.1482 107.586 15.0957 108.129 15.1461C109.493 15.2725 110.743 15.9146 111.593 16.9253C112.456 17.9525 112.93 19.3875 112.991 21.1544C113.001 21.4313 113.003 21.9167 112.996 22.2332L112.984 22.8087L108.207 22.8147L103.43 22.8206V23.034C103.43 23.6829 103.588 24.422 103.86 25.0509C104.096 25.5933 104.5 26.1854 104.832 26.472C105.512 27.0597 106.344 27.4114 107.254 27.496C107.591 27.5273 108.452 27.4942 108.836 27.4351C109.934 27.2664 110.977 26.8361 111.819 26.2044C111.889 26.1517 111.959 26.1002 112.03 26.0501C112.055 26.0347 112.061 26.2288 112.06 27.0452L112.059 28.0593L111.834 28.1989C110.88 28.7883 109.789 29.1669 108.633 29.3085C108.287 29.3508 107.022 29.37 106.609 29.3388ZM110.766 20.7854C110.766 19.6982 110.308 18.4906 109.66 17.8688C109.197 17.425 108.638 17.1538 107.973 17.0509C107.659 17.0022 106.996 17.021 106.664 17.0879C105.963 17.2296 105.383 17.5378 104.877 18.0375C104.345 18.5634 103.946 19.2024 103.695 19.9301C103.605 20.1919 103.499 20.6216 103.467 20.8607L103.451 20.9746H110.766L110.766 20.7854ZM45.9658 29.0004C45.9714 28.9837 47.5937 24.7222 49.5707 19.5301L53.1655 10.0898H55.4754L55.5712 10.3354C55.864 11.0864 62.7676 29.0098 62.7676 29.0192C62.7676 29.0251 62.2146 29.0303 61.5389 29.0301L60.3102 29.0298L59.3151 26.3808L58.32 23.7316H50.3078L50.2728 23.8215C50.2536 23.8711 49.8286 25.0631 49.3281 26.4703L48.4184 29.0294L47.1869 29.0298C46.2123 29.03 45.9577 29.0241 45.9658 29.0004ZM57.589 21.71C57.589 21.7057 56.9193 19.8906 56.1008 17.6762C54.5697 13.5334 54.4843 13.2842 54.3632 12.619C54.3066 12.3073 54.2778 12.2987 54.2441 12.5832C54.2201 12.7865 54.1159 13.2417 54.0352 13.4941C53.9953 13.6195 53.306 15.5117 52.5033 17.6994C51.7003 19.887 51.0437 21.6859 51.0437 21.6972C51.0437 21.7085 52.5163 21.7177 54.3162 21.7177C56.1162 21.7177 57.589 21.7141 57.589 21.71ZM63.5108 28.6852V28.3403L67.5023 22.8533L71.4937 17.3663L67.8799 17.3541L64.2661 17.3422L64.2597 16.4252L64.2535 15.5081H74.7073V16.1275L70.7155 21.6444C68.5199 24.6789 66.7235 27.1667 66.7235 27.1729C66.7235 27.1791 68.4983 27.1842 70.6675 27.1842H74.6114V29.0303H63.5108V28.6852ZM92.8008 29.0142C92.792 29.0055 92.7848 25.9629 92.7848 22.2533V15.5081H94.9666V16.8987C94.9666 17.6636 94.9757 18.2892 94.9873 18.2892C94.9986 18.2892 95.0516 18.1641 95.1052 18.011C95.3505 17.3099 95.7757 16.6548 96.3238 16.134C96.8173 15.665 97.3815 15.3844 98.0474 15.277C98.2344 15.2471 98.3926 15.2411 98.7666 15.251C99.2364 15.2631 99.4819 15.2975 99.7677 15.3908L99.8573 15.4203V17.6849L99.5998 17.5559C99.1445 17.3281 98.6952 17.2378 98.1552 17.2659C97.8037 17.2841 97.5731 17.3294 97.292 17.4346C96.7216 17.6454 96.2379 18.0406 95.9175 18.5575C95.443 19.3143 95.1047 20.2869 95.005 21.1811C94.9871 21.3414 94.9766 22.6481 94.9723 25.2241L94.9659 29.0303H93.8914C93.3003 29.0303 92.8096 29.023 92.8008 29.0142ZM0 28.9668C0 28.9583 2.40215 24.7884 5.33816 19.7003L10.6763 10.4492L16.8973 5.22873C20.3186 2.35742 23.1274 0.00438788 23.1387 0.000117012C23.1498 -0.00415385 23.105 0.109024 23.0385 0.251671C22.9723 0.394532 19.9326 6.91444 16.2835 14.7406L9.64874 28.97L4.82437 28.9762C2.1711 28.9797 0 28.9754 0 28.9668Z" fill="#0089D6"></path><g clip-path="url(#clip0_100_19)"><path d="M159.632 21.0131C159.632 21.6825 159.704 22.2253 159.831 22.6233C159.975 23.0213 160.156 23.4556 160.41 23.9259C160.5 24.0707 160.536 24.2154 160.536 24.3421C160.536 24.523 160.428 24.7039 160.192 24.8848L159.053 25.6447C158.89 25.7533 158.727 25.8075 158.582 25.8075C158.401 25.8075 158.22 25.7171 158.04 25.5542C157.786 25.2829 157.569 24.9934 157.388 24.7039C157.207 24.3963 157.026 24.0526 156.827 23.6365C155.416 25.3009 153.643 26.1332 151.508 26.1332C149.989 26.1332 148.776 25.699 147.89 24.8306C147.003 23.9621 146.551 22.8042 146.551 21.3569C146.551 19.819 147.094 18.5707 148.197 17.6299C149.301 16.6891 150.766 16.2187 152.63 16.2187C153.245 16.2187 153.878 16.273 154.548 16.3634C155.217 16.4539 155.905 16.5986 156.628 16.7615V15.4408C156.628 14.0658 156.339 13.1069 155.778 12.546C155.199 11.9852 154.222 11.7138 152.829 11.7138C152.196 11.7138 151.544 11.7861 150.875 11.949C150.206 12.1118 149.554 12.3108 148.921 12.5641C148.632 12.6908 148.415 12.7631 148.288 12.7993C148.161 12.8355 148.071 12.8536 147.998 12.8536C147.745 12.8536 147.618 12.6727 147.618 12.2927V11.4062C147.618 11.1167 147.655 10.8996 147.745 10.773C147.836 10.6463 147.998 10.5197 148.252 10.3931C148.885 10.0674 149.645 9.79601 150.531 9.57891C151.418 9.34371 152.359 9.23516 153.354 9.23516C155.507 9.23516 157.081 9.72365 158.094 10.7006C159.089 11.6776 159.595 13.1611 159.595 15.1513V21.0131H159.632ZM152.286 23.7631C152.883 23.7631 153.498 23.6546 154.15 23.4375C154.801 23.2204 155.38 22.8223 155.868 22.2796C156.158 21.9358 156.375 21.5559 156.484 21.1217C156.592 20.6875 156.665 20.1628 156.665 19.5477V18.7878C156.14 18.6611 155.579 18.5526 155 18.4802C154.421 18.4079 153.86 18.3717 153.299 18.3717C152.087 18.3717 151.201 18.6069 150.604 19.0954C150.007 19.5838 149.717 20.2713 149.717 21.1759C149.717 22.0263 149.934 22.6595 150.387 23.0937C150.821 23.546 151.454 23.7631 152.286 23.7631ZM166.814 25.7171C166.489 25.7171 166.271 25.6628 166.127 25.5361C165.982 25.4276 165.855 25.1743 165.747 24.8306L161.495 10.8454C161.387 10.4835 161.332 10.2483 161.332 10.1217C161.332 9.8322 161.477 9.66937 161.766 9.66937H163.54C163.883 9.66937 164.118 9.72365 164.245 9.85029C164.39 9.95884 164.498 10.2121 164.607 10.5559L167.646 22.5329L170.469 10.5559C170.559 10.194 170.668 9.95884 170.813 9.85029C170.957 9.74174 171.211 9.66937 171.536 9.66937H172.984C173.327 9.66937 173.563 9.72365 173.707 9.85029C173.852 9.95884 173.979 10.2121 174.051 10.5559L176.91 22.6776L180.04 10.5559C180.148 10.194 180.275 9.95884 180.401 9.85029C180.546 9.74174 180.781 9.66937 181.107 9.66937H182.79C183.079 9.66937 183.242 9.81411 183.242 10.1217C183.242 10.2121 183.224 10.3026 183.206 10.4111C183.188 10.5197 183.151 10.6644 183.079 10.8634L178.719 24.8486C178.61 25.2105 178.484 25.4457 178.339 25.5542C178.194 25.6628 177.959 25.7352 177.651 25.7352H176.095C175.752 25.7352 175.516 25.6809 175.372 25.5542C175.227 25.4276 175.1 25.1924 175.028 24.8306L172.224 13.1611L169.438 24.8125C169.347 25.1743 169.239 25.4095 169.094 25.5361C168.949 25.6628 168.696 25.7171 168.37 25.7171H166.814ZM190.063 26.2056C189.122 26.2056 188.181 26.097 187.276 25.8799C186.372 25.6628 185.666 25.4276 185.196 25.1562C184.906 24.9934 184.707 24.8125 184.635 24.6496C184.563 24.4868 184.526 24.3059 184.526 24.1431V23.2204C184.526 22.8404 184.671 22.6595 184.942 22.6595C185.051 22.6595 185.16 22.6776 185.268 22.7138C185.377 22.75 185.54 22.8223 185.72 22.8947C186.336 23.1661 187.005 23.3832 187.711 23.5279C188.434 23.6727 189.14 23.745 189.864 23.745C191.003 23.745 191.89 23.546 192.505 23.148C193.12 22.75 193.446 22.171 193.446 21.4292C193.446 20.9227 193.283 20.5065 192.957 20.1628C192.632 19.819 192.016 19.5115 191.13 19.222L188.507 18.4079C187.186 17.9917 186.209 17.3766 185.612 16.5625C185.015 15.7664 184.707 14.8799 184.707 13.9391C184.707 13.1792 184.87 12.5098 185.196 11.9309C185.521 11.3519 185.956 10.8454 186.498 10.4473C187.041 10.0312 187.656 9.72365 188.38 9.50654C189.104 9.28944 189.864 9.19897 190.66 9.19897C191.058 9.19897 191.474 9.21707 191.872 9.27134C192.288 9.32562 192.668 9.39799 193.048 9.47036C193.41 9.56082 193.753 9.65128 194.079 9.75983C194.405 9.86838 194.658 9.97694 194.839 10.0855C195.092 10.2302 195.273 10.375 195.382 10.5378C195.49 10.6825 195.544 10.8815 195.544 11.1348V11.9852C195.544 12.3651 195.4 12.5641 195.128 12.5641C194.984 12.5641 194.748 12.4917 194.441 12.347C193.41 11.8766 192.252 11.6414 190.967 11.6414C189.936 11.6414 189.122 11.8042 188.561 12.148C188 12.4917 187.711 13.0164 187.711 13.7582C187.711 14.2648 187.891 14.699 188.253 15.0427C188.615 15.3865 189.285 15.7302 190.243 16.0378L192.813 16.8519C194.115 17.2681 195.056 17.847 195.617 18.5888C196.178 19.3306 196.449 20.1809 196.449 21.1217C196.449 21.8996 196.286 22.6052 195.979 23.2204C195.653 23.8355 195.219 24.3783 194.658 24.8125C194.097 25.2648 193.428 25.5904 192.65 25.8256C191.836 26.0789 190.985 26.2056 190.063 26.2056Z" fill="#252F3E"></path><path fill-rule="evenodd" clip-rule="evenodd" d="M193.482 34.9984C187.53 39.3948 178.882 41.7287 171.446 41.7287C161.025 41.7287 151.635 37.8751 144.543 31.4705C143.982 30.9639 144.488 30.2764 145.158 30.6744C152.829 35.1251 162.291 37.8208 172.079 37.8208C178.683 37.8208 185.937 36.4458 192.613 33.6234C193.609 33.1711 194.459 34.2747 193.482 34.9984Z" fill="#FF9900"></path><path fill-rule="evenodd" clip-rule="evenodd" d="M195.961 32.176C195.201 31.199 190.931 31.7056 188.995 31.9408C188.416 32.0132 188.326 31.5066 188.85 31.1267C192.252 28.7385 197.842 29.426 198.493 30.2221C199.145 31.0362 198.312 36.6267 195.128 39.3043C194.64 39.7204 194.169 39.5033 194.387 38.9605C195.11 37.1694 196.72 33.1349 195.961 32.176Z" fill="#FF9900"></path></g><defs><clipPath id="clip0_100_19"><rect width="55" height="32.9276" fill="white" transform="translate(144 9)"></rect></clipPath></defs></svg>