<svg width="20" height="20" viewBox="0 0 20 20" fill="none" xmlns="http://www.w3.org/2000/svg">
<g clip-path="url(#clip0_0_108)">
<path d="M4.79202 0C4.62662 0 4.49265 0.134125 4.49265 0.299377V4.01566C4.49265 4.18091 4.62662 4.31503 4.79202 4.31503C4.95743 4.31503 5.0914 4.18091 5.0914 4.01566V0.299377C5.0914 0.134125 4.95743 0 4.79202 0Z" fill="#BACBEC"/>
<path d="M6.87515 0C6.70975 0 6.57578 0.134125 6.57578 0.299377V4.01566C6.57578 4.18091 6.70975 4.31503 6.87515 4.31503C7.04056 4.31503 7.17468 4.18091 7.17468 4.01566V0.299377C7.17468 0.134125 7.04056 0 6.87515 0Z" fill="#BACBEC"/>
<path d="M8.95844 0C8.79303 0 8.65906 0.134125 8.65906 0.299377V4.01566C8.65906 4.18091 8.79303 4.31503 8.95844 4.31503C9.12384 4.31503 9.25781 4.18091 9.25781 4.01566V0.299377C9.25781 0.134125 9.12384 0 8.95844 0Z" fill="#BACBEC"/>
<path d="M11.0416 0C10.8762 0 10.7422 0.134125 10.7422 0.299377V4.01566C10.7422 4.18091 10.8762 4.31503 11.0416 4.31503C11.207 4.31503 11.3409 4.18091 11.3409 4.01566V0.299377C11.3409 0.134125 11.207 0 11.0416 0Z" fill="#BACBEC"/>
<path d="M13.1248 0C12.9594 0 12.8253 0.134125 12.8253 0.299377V4.01566C12.8253 4.18091 12.9594 4.31503 13.1248 4.31503C13.2903 4.31503 13.4242 4.18091 13.4242 4.01566V0.299377C13.4242 0.134125 13.2903 0 13.1248 0Z" fill="#BACBEC"/>
<path d="M15.208 0C15.0426 0 14.9086 0.134125 14.9086 0.299377V4.01566C14.9086 4.18091 15.0426 4.31503 15.208 4.31503C15.3734 4.31503 15.5074 4.18091 15.5074 4.01566V0.299377C15.5074 0.134125 15.3734 0 15.208 0Z" fill="#BACBEC"/>
<path d="M4.79202 15.685C4.62662 15.685 4.49265 15.8191 4.49265 15.9843V19.7006C4.49265 19.8659 4.62662 20 4.79202 20C4.95743 20 5.0914 19.8659 5.0914 19.7006V15.9843C5.0914 15.8191 4.95743 15.685 4.79202 15.685Z" fill="#BACBEC"/>
<path d="M6.87515 15.685C6.70975 15.685 6.57578 15.8191 6.57578 15.9843V19.7006C6.57578 19.8659 6.70975 20 6.87515 20C7.04056 20 7.17468 19.8659 7.17468 19.7006V15.9843C7.17468 15.8191 7.04056 15.685 6.87515 15.685Z" fill="#BACBEC"/>
<path d="M8.95844 15.685C8.79303 15.685 8.65906 15.8191 8.65906 15.9843V19.7006C8.65906 19.8659 8.79303 20 8.95844 20C9.12384 20 9.25781 19.8659 9.25781 19.7006V15.9843C9.25781 15.8191 9.12384 15.685 8.95844 15.685Z" fill="#BACBEC"/>
<path d="M11.0416 15.685C10.8762 15.685 10.7422 15.8191 10.7422 15.9843V19.7006C10.7422 19.8659 10.8762 20 11.0416 20C11.207 20 11.3409 19.8659 11.3409 19.7006V15.9843C11.3409 15.8191 11.207 15.685 11.0416 15.685Z" fill="#BACBEC"/>
<path d="M13.1248 15.685C12.9594 15.685 12.8253 15.8191 12.8253 15.9843V19.7006C12.8253 19.8659 12.9594 20 13.1248 20C13.2903 20 13.4242 19.8659 13.4242 19.7006V15.9843C13.4242 15.8191 13.2903 15.685 13.1248 15.685Z" fill="#BACBEC"/>
<path d="M15.208 15.685C15.0426 15.685 14.9086 15.8191 14.9086 15.9843V19.7006C14.9086 19.8659 15.0426 20 15.208 20C15.3734 20 15.5074 19.8659 15.5074 19.7006V15.9843C15.5074 15.8191 15.3734 15.685 15.208 15.685Z" fill="#BACBEC"/>
<path d="M15.9843 5.0914H19.7006C19.866 5.0914 20 4.95728 20 4.79202C20 4.62662 19.866 4.49265 19.7006 4.49265H15.9843C15.8189 4.49265 15.685 4.62662 15.685 4.79202C15.685 4.95728 15.8191 5.0914 15.9843 5.0914Z" fill="#BACBEC"/>
<path d="M19.7006 6.57578H15.9843C15.8189 6.57578 15.685 6.7099 15.685 6.87515C15.685 7.04056 15.8189 7.17468 15.9843 7.17468H19.7006C19.866 7.17468 20 7.04056 20 6.87515C20 6.7099 19.866 6.57578 19.7006 6.57578Z" fill="#BACBEC"/>
<path d="M19.7006 8.65906H15.9843C15.8189 8.65906 15.685 8.79303 15.685 8.95844C15.685 9.12369 15.8189 9.25781 15.9843 9.25781H19.7006C19.866 9.25781 20 9.12369 20 8.95844C20 8.79303 19.866 8.65906 19.7006 8.65906Z" fill="#BACBEC"/>
<path d="M19.7006 10.7422H15.9843C15.8189 10.7422 15.685 10.8763 15.685 11.0416C15.685 11.207 15.8189 11.3409 15.9843 11.3409H19.7006C19.866 11.3409 20 11.207 20 11.0416C20 10.8763 19.866 10.7422 19.7006 10.7422Z" fill="#BACBEC"/>
<path d="M19.7006 12.8253H15.9843C15.8189 12.8253 15.685 12.9594 15.685 13.1248C15.685 13.2901 15.8189 13.4242 15.9843 13.4242H19.7006C19.866 13.4242 20 13.2901 20 13.1248C20 12.9594 19.866 12.8253 19.7006 12.8253Z" fill="#BACBEC"/>
<path d="M19.7006 14.9086H15.9843C15.8189 14.9086 15.685 15.0427 15.685 15.208C15.685 15.3734 15.8189 15.5074 15.9843 15.5074H19.7006C19.866 15.5074 20 15.3734 20 15.208C20 15.0427 19.866 14.9086 19.7006 14.9086Z" fill="#BACBEC"/>
<path d="M4.01566 4.49265H0.299377C0.133972 4.49265 0 4.62662 0 4.79202C0 4.95728 0.133972 5.0914 0.299377 5.0914H4.01566C4.18106 5.0914 4.31503 4.95728 4.31503 4.79202C4.31503 4.62662 4.18091 4.49265 4.01566 4.49265Z" fill="#BACBEC"/>
<path d="M4.01566 6.57578H0.299377C0.133972 6.57578 0 6.7099 0 6.87515C0 7.04056 0.133972 7.17468 0.299377 7.17468H4.01566C4.18106 7.17468 4.31503 7.04056 4.31503 6.87515C4.31503 6.7099 4.18091 6.57578 4.01566 6.57578Z" fill="#BACBEC"/>
<path d="M4.01566 8.65906H0.299377C0.133972 8.65906 0 8.79303 0 8.95844C0 9.12369 0.133972 9.25781 0.299377 9.25781H4.01566C4.18106 9.25781 4.31503 9.12369 4.31503 8.95844C4.31503 8.79303 4.18091 8.65906 4.01566 8.65906Z" fill="#BACBEC"/>
<path d="M4.01566 10.7422H0.299377C0.133972 10.7422 0 10.8763 0 11.0416C0 11.207 0.133972 11.3409 0.299377 11.3409H4.01566C4.18106 11.3409 4.31503 11.207 4.31503 11.0416C4.31503 10.8763 4.18091 10.7422 4.01566 10.7422Z" fill="#BACBEC"/>
<path d="M4.01566 12.8253H0.299377C0.133972 12.8253 0 12.9594 0 13.1248C0 13.2901 0.133972 13.4242 0.299377 13.4242H4.01566C4.18106 13.4242 4.31503 13.2901 4.31503 13.1248C4.31503 12.9594 4.18091 12.8253 4.01566 12.8253Z" fill="#BACBEC"/>
<path d="M4.01566 14.9086H0.299377C0.133972 14.9086 0 15.0427 0 15.208C0 15.3734 0.133972 15.5074 0.299377 15.5074H4.01566C4.18106 15.5074 4.31503 15.3734 4.31503 15.208C4.31503 15.0427 4.18091 14.9086 4.01566 14.9086Z" fill="#BACBEC"/>
<path d="M16.06 17.2278H3.93997C3.29514 17.2278 2.77222 16.7049 2.77222 16.06V3.93997C2.77222 3.29514 3.29514 2.77222 3.93997 2.77222H16.0599C16.7049 2.77222 17.2276 3.29514 17.2276 3.93997V16.0599C17.2278 16.7049 16.7049 17.2278 16.06 17.2278Z" fill="#4172CC"/>
<path d="M15.5446 4.94965V15.0504C15.5446 15.323 15.323 15.5446 15.0504 15.5446H4.94965C4.67697 15.5446 4.45541 15.323 4.45541 15.0504V4.94965C4.45541 4.67697 4.67697 4.45541 4.94965 4.45541H15.0504C15.323 4.45541 15.5446 4.67697 15.5446 4.94965Z" fill="#6990D7"/>
<path d="M15.5446 4.94965V15.0504C15.5446 15.323 15.323 15.5446 15.0504 15.5446H6.34689C6.07422 15.5446 5.85266 15.323 5.85266 15.0504V4.94965C5.85266 4.67697 6.07422 4.45541 6.34689 4.45541H15.0504C15.323 4.45541 15.5446 4.67697 15.5446 4.94965Z" fill="#91AEE2"/>
<path d="M6.42715 11.6966H13.5728C13.7383 11.6966 13.8722 11.5625 13.8722 11.3972C13.8722 11.2318 13.7383 11.0979 13.5728 11.0979H6.42715C6.26175 11.0979 6.12778 11.2318 6.12778 11.3972C6.12778 11.5625 6.26175 11.6966 6.42715 11.6966Z" fill="#BACBEC"/>
<path d="M11.2175 13.0139H6.42715C6.26175 13.0139 6.12778 13.148 6.12778 13.3134C6.12778 13.4787 6.26175 13.6128 6.42715 13.6128H11.2175C11.3829 13.6128 11.517 13.4787 11.517 13.3134C11.517 13.148 11.3829 13.0139 11.2175 13.0139Z" fill="#BACBEC"/>
<path d="M13.5728 13.0139H12.4152C12.2498 13.0139 12.1158 13.148 12.1158 13.3134C12.1158 13.4787 12.2498 13.6128 12.4152 13.6128H13.5728C13.7383 13.6128 13.8722 13.4787 13.8722 13.3134C13.8722 13.148 13.7383 13.0139 13.5728 13.0139Z" fill="#BACBEC"/>
</g>
<defs>
<clipPath id="clip0_0_108">
<rect width="20" height="20" fill="white"/>
</clipPath>
</defs>
</svg>
