<svg width="20" height="20" viewBox="0 0 20 20" fill="none" xmlns="http://www.w3.org/2000/svg">
<g clip-path="url(#clip0_0_42)">
<path d="M18.5569 9.96094C18.5569 9.97398 18.5574 9.98695 18.5574 10C18.5574 14.7284 14.7243 18.5615 9.9959 18.5615C9.86996 18.5615 9.74473 18.5586 9.62016 18.5531C9.39067 18.5429 9.19883 18.725 9.19883 18.9547V19.5891C9.19883 19.8051 9.3693 19.9826 9.58512 19.9915C9.72156 19.9971 9.85852 20 9.9959 20C12.667 20 15.1782 18.9598 17.067 17.071C18.9557 15.1823 19.9959 12.6711 19.9959 10C19.9959 9.98695 19.9955 9.97398 19.9954 9.96094H18.5569Z" fill="#26A6FE"/>
<path d="M2.95277 2.90164C2.94352 2.91082 2.93406 2.91969 2.92484 2.92891C1.13512 4.71863 0.107306 7.06723 0.00445409 9.58117C-0.00488185 9.80965 0.178204 10 0.406876 10H1.04121C1.25641 10 1.43336 9.83063 1.44289 9.61563C1.54121 7.39043 2.48926 5.38633 3.97004 3.91891L2.95277 2.90164Z" fill="#26A6FE"/>
<path d="M17.0809 2.94324L16.0734 3.9714C17.6084 5.51874 18.5574 7.64824 18.5574 10H19.9959C19.9959 7.33558 18.9607 4.83035 17.0809 2.94324Z" fill="#FD6930"/>
<path d="M16.5764 8.71481H15.5411C15.328 8.71481 15.1407 8.57629 15.0759 8.3734C14.9856 8.09075 14.8725 7.81833 14.7385 7.55836C14.6409 7.36887 14.6751 7.13836 14.8258 6.98762L15.5577 6.25567C15.7484 6.06504 15.7484 5.75598 15.5577 5.56536L14.4305 4.43813C14.2399 4.24751 13.9308 4.24751 13.7402 4.43813L13.0083 5.17004C12.8575 5.32079 12.6271 5.35504 12.4375 5.25735C12.1776 5.12336 11.9052 5.01024 11.6225 4.91997C11.4196 4.85516 11.2811 4.66782 11.2811 4.45481V3.41954C11.2811 3.14997 11.0626 2.93141 10.793 2.93141H9.19883C8.92926 2.93141 8.7107 3.14997 8.7107 3.41954V4.45485C8.7107 4.66786 8.57219 4.85516 8.3693 4.92001C8.08664 5.01032 7.81422 5.12344 7.55426 5.25739C7.36473 5.35504 7.13426 5.32083 6.98352 5.17008L6.2516 4.43817C6.06098 4.24754 5.75191 4.24754 5.56129 4.43817L4.43406 5.5654C4.24344 5.75602 4.24344 6.06508 4.43406 6.25571L5.16598 6.98766C5.31672 7.1384 5.35094 7.36887 5.25328 7.5584C5.1193 7.81836 5.00617 8.09079 4.9159 8.37344C4.85109 8.57633 4.66375 8.71485 4.45074 8.71485H3.41543C3.14586 8.71485 2.92731 8.93336 2.92731 9.20297V10.7971C2.92731 11.0667 3.14582 11.2852 3.41543 11.2852H3.42043C3.84254 11.1365 4.29621 11.0552 4.76859 11.0552C7.01035 11.0552 8.83414 12.879 8.83414 15.1207C8.83414 15.4641 8.79117 15.7975 8.71066 16.1162V16.5806C8.71066 16.8501 8.92922 17.0687 9.19879 17.0687H10.793C11.0625 17.0687 11.2811 16.8501 11.2811 16.5806V15.5452C11.2811 15.3322 11.4196 15.1449 11.6225 15.0801C11.9052 14.9898 12.1776 14.8766 12.4375 14.7427C12.627 14.645 12.8575 14.6793 13.0083 14.83L13.7402 15.5619C13.9308 15.7525 14.2399 15.7525 14.4305 15.5619L15.5577 14.4347C15.7484 14.2441 15.7484 13.935 15.5577 13.7444L14.8258 13.0124C14.6751 12.8617 14.6408 12.6312 14.7385 12.4417C14.8725 12.1817 14.9856 11.9093 15.0759 11.6266C15.1407 11.4238 15.328 11.2852 15.5411 11.2852H16.5764C16.8459 11.2852 17.0645 11.0667 17.0645 10.7971V9.20297C17.0645 8.93336 16.8459 8.71481 16.5764 8.71481ZM11.6484 10.6012C11.6484 10.6545 11.6272 10.7057 11.5895 10.7434L10.7393 11.5936C10.7016 11.6313 10.6504 11.6525 10.597 11.6525H9.39473C9.34137 11.6525 9.2902 11.6313 9.25246 11.5936L8.40227 10.7434C8.36453 10.7057 8.34332 10.6545 8.34332 10.6012V9.39891C8.34332 9.34555 8.36453 9.29438 8.40227 9.25665L9.25246 8.40649C9.2902 8.36875 9.34137 8.34755 9.39473 8.34755H10.597C10.6504 8.34755 10.7016 8.36875 10.7393 8.40649L11.5895 9.25665C11.6272 9.29438 11.6484 9.34555 11.6484 9.39891V10.6012Z" fill="#9FACBA"/>
<path d="M16.5764 8.71481H15.5411C15.328 8.71481 15.1407 8.57629 15.0759 8.3734C14.9856 8.09075 14.8725 7.81833 14.7385 7.55836C14.6409 7.36887 14.6751 7.13836 14.8258 6.98762L15.5577 6.25567C15.7484 6.06504 15.7484 5.75598 15.5577 5.56536L14.4305 4.43813C14.2399 4.24751 13.9308 4.24751 13.7402 4.43813L13.0083 5.17004C12.8575 5.32079 12.6271 5.35504 12.4375 5.25735C12.1776 5.12336 11.9052 5.01024 11.6225 4.91997C11.4196 4.85516 11.2811 4.66782 11.2811 4.45481V3.41954C11.2811 3.14997 11.0626 2.93141 10.793 2.93141H9.19883C8.92926 2.93141 8.7107 3.14997 8.7107 3.41954V3.58079C10.4326 4.37676 11.7798 5.84501 12.4161 7.64879L13.193 8.42575C13.3062 8.53895 13.3698 8.69247 13.3698 8.85258V11.1475C13.3698 11.3076 13.3062 11.4612 13.193 11.5744L12.4161 12.3513C11.7799 14.1551 10.4326 15.6233 8.71074 16.4193V16.5805C8.71074 16.8501 8.9293 17.0686 9.19887 17.0686H10.793C11.0625 17.0686 11.2811 16.8501 11.2811 16.5805V15.5452C11.2811 15.3322 11.4196 15.1449 11.6225 15.08C11.9052 14.9897 12.1776 14.8766 12.4375 14.7427C12.627 14.645 12.8575 14.6792 13.0083 14.83L13.7402 15.5619C13.9308 15.7525 14.2399 15.7525 14.4305 15.5619L15.5577 14.4347C15.7484 14.244 15.7484 13.935 15.5577 13.7443L14.8258 13.0124C14.6751 12.8616 14.6408 12.6312 14.7385 12.4416C14.8725 12.1817 14.9856 11.9093 15.0759 11.6266C15.1407 11.4237 15.328 11.2852 15.5411 11.2852H16.5764C16.8459 11.2852 17.0645 11.0667 17.0645 10.7971V9.20294C17.0645 8.93336 16.8459 8.71481 16.5764 8.71481Z" fill="#8D9CA8"/>
<path d="M13.193 8.42571L11.5702 6.8029C11.457 6.68969 11.3035 6.6261 11.1434 6.6261H8.84844C8.68836 6.6261 8.5348 6.68969 8.4216 6.8029L6.79879 8.42571C6.68559 8.53891 6.62199 8.69243 6.62199 8.85254V11.1475C6.62199 11.3076 6.68559 11.4611 6.79879 11.5743L6.86016 11.6357C7.43051 11.9793 7.91004 12.4588 8.25363 13.0292L8.4216 13.1972C8.5348 13.3104 8.68832 13.3739 8.84844 13.3739H11.1434C11.3035 13.3739 11.457 13.3104 11.5702 13.1972L13.193 11.5744C13.3062 11.4612 13.3698 11.3077 13.3698 11.1475V8.85258C13.3698 8.69243 13.3062 8.53891 13.193 8.42571ZM11.6484 10.6012C11.6484 10.6545 11.6272 10.7057 11.5895 10.7434L10.7393 11.5936C10.7016 11.6313 10.6504 11.6525 10.597 11.6525H9.39473C9.34137 11.6525 9.2902 11.6313 9.25246 11.5936L8.40227 10.7434C8.36453 10.7057 8.34332 10.6545 8.34332 10.6012V9.39891C8.34332 9.34555 8.36453 9.29438 8.40227 9.25665L9.25246 8.40649C9.2902 8.36875 9.34137 8.34754 9.39473 8.34754H10.597C10.6504 8.34754 10.7016 8.36875 10.7393 8.40649L11.5895 9.25665C11.6272 9.29438 11.6484 9.34555 11.6484 9.39891V10.6012Z" fill="#D9E7EC"/>
<path d="M13.193 8.42571L11.5702 6.8029C11.457 6.68969 11.3035 6.6261 11.1434 6.6261H10.1173C10.2774 6.6261 10.4309 6.68969 10.5441 6.8029L12.1669 8.42571C12.2801 8.53891 12.3437 8.69243 12.3437 8.85254V11.1475C12.3437 11.3076 12.2801 11.4611 12.1669 11.5743L10.5441 13.1971C10.4309 13.3103 10.2774 13.3739 10.1173 13.3739H11.1434C11.3034 13.3739 11.457 13.3103 11.5702 13.1971L13.193 11.5743C13.3062 11.4611 13.3698 11.3076 13.3698 11.1475V8.85254C13.3698 8.69243 13.3062 8.53891 13.193 8.42571Z" fill="#C5D3DD"/>
<path d="M10.5971 11.9455H9.39477C9.26277 11.9455 9.13867 11.8941 9.04535 11.8008L8.19516 10.9506C8.10184 10.8573 8.05039 10.7332 8.05039 10.6011V9.39888C8.05039 9.26685 8.1018 9.14271 8.1952 9.04939L9.04531 8.19927C9.13867 8.10591 9.26274 8.0545 9.39473 8.0545H10.597C10.729 8.0545 10.8531 8.10591 10.9464 8.19927L11.7966 9.04943C11.8899 9.14275 11.9413 9.26685 11.9413 9.39884V10.6012C11.9413 10.7332 11.8899 10.8573 11.7966 10.9506L10.9464 11.8008C10.8532 11.8941 10.7291 11.9455 10.5971 11.9455ZM9.43278 11.3596H10.5591L11.3554 10.5632V9.43685L10.5591 8.64048H9.43278L8.63633 9.43693V10.5632L9.43278 11.3596Z" fill="#C5D3DD"/>
<path d="M4.12406 10.0899V11.1064C4.33406 11.0728 4.5493 11.0551 4.76859 11.0551C4.98789 11.0551 5.20312 11.0728 5.41312 11.1064V10.0899H4.12406Z" fill="#F2FBFF"/>
<path d="M4.76562 10.0899V11.0551C4.76664 11.0551 4.76762 11.0551 4.76863 11.0551C4.98793 11.0551 5.20316 11.0728 5.41316 11.1064V10.0899H4.76562Z" fill="#D9E7EC"/>
<path d="M5.67406 10.1289H3.86316C3.70137 10.1289 3.5702 9.99776 3.5702 9.83597C3.5702 9.67417 3.70137 9.543 3.86316 9.543H5.67402C5.83582 9.543 5.96699 9.67417 5.96699 9.83597C5.96699 9.99776 5.83586 10.1289 5.67406 10.1289Z" fill="#C5D3DD"/>
<path d="M7.66848 18.0215C9.27119 16.4188 9.27119 13.8203 7.66848 12.2176C6.06578 10.6149 3.46727 10.6149 1.86457 12.2176C0.26186 13.8203 0.26186 16.4188 1.86457 18.0215C3.46727 19.6242 6.06578 19.6242 7.66848 18.0215Z" fill="#FD6930"/>
<path d="M4.76863 11.0161C4.49316 11.0161 4.22406 11.0434 3.96379 11.0952C4.83496 11.2684 5.60641 11.7176 6.18414 12.3474C7.19184 12.8639 7.88352 13.9127 7.88352 15.1207C7.88352 16.3287 7.19184 17.3775 6.18414 17.8939C5.60641 18.5237 4.83492 18.973 3.96379 19.1462C4.22406 19.198 4.49313 19.2253 4.76863 19.2253C7.03555 19.2253 8.87324 17.3876 8.87324 15.1207C8.87324 12.8537 7.03555 11.0161 4.76863 11.0161Z" fill="#FD5426"/>
<path d="M6.76162 17.1147C7.86348 16.0128 7.86348 14.2263 6.76162 13.1245C5.65976 12.0226 3.87329 12.0226 2.77143 13.1245C1.66957 14.2263 1.66957 16.0128 2.77143 17.1147C3.87329 18.2165 5.65976 18.2165 6.76162 17.1147Z" fill="white"/>
<path d="M4.76863 12.2988C4.53363 12.2988 4.30543 12.3281 4.08703 12.3825C5.31477 12.6882 6.22738 13.7997 6.22738 15.1207C6.22738 16.4417 5.31481 17.5532 4.08703 17.8589C4.30543 17.9132 4.53363 17.9426 4.76863 17.9426C6.32465 17.9426 7.59055 16.6767 7.59055 15.1207C7.59055 13.5647 6.32465 12.2988 4.76863 12.2988Z" fill="#F2FBFF"/>
<path d="M5.37977 14.9239L6.77855 13.5251C6.6566 13.3718 6.51758 13.2327 6.36422 13.1108L4.96543 14.5096C5.16144 14.5728 5.31645 14.7278 5.37977 14.9239Z" fill="#8D9CA8"/>
<path d="M4.76863 18.2356C3.05106 18.2356 1.65371 16.8382 1.65371 15.1207C1.65371 13.4031 3.05106 12.0058 4.76863 12.0058C6.48617 12.0058 7.88352 13.4031 7.88352 15.1207C7.88352 16.8382 6.48617 18.2356 4.76863 18.2356ZM4.76863 12.5917C3.37414 12.5917 2.23965 13.7262 2.23965 15.1207C2.23965 16.5152 3.37414 17.6497 4.76863 17.6497C6.16309 17.6497 7.29758 16.5152 7.29758 15.1207C7.29758 13.7262 6.16309 12.5917 4.76863 12.5917Z" fill="#FFB09E"/>
<path d="M5.20633 17.0654H4.3309C4.1691 17.0654 4.03793 16.9343 4.03793 16.7725C4.03793 16.6107 4.1691 16.4795 4.3309 16.4795H5.20633C5.36812 16.4795 5.4993 16.6107 5.4993 16.7725C5.4993 16.9343 5.36812 17.0654 5.20633 17.0654Z" fill="#9FACBA"/>
<path d="M5.43181 15.2709C5.51874 14.9047 5.29238 14.5374 4.92624 14.4505C4.56009 14.3636 4.1928 14.5899 4.10587 14.9561C4.01894 15.3222 4.2453 15.6895 4.61144 15.7764C4.97759 15.8634 5.34488 15.637 5.43181 15.2709Z" fill="#9FACBA"/>
<path d="M9.97379 1.43879C9.98117 1.43879 9.98852 1.43852 9.9959 1.43852C12.3889 1.43852 14.5523 2.42074 16.1059 4.00355L17.102 2.9648C17.0902 2.95293 17.0788 2.94078 17.067 2.92895C15.1782 1.0402 12.667 0 9.9959 0C9.98852 0 9.98117 0.000234375 9.97379 0.000273437V1.43879Z" fill="#FFD15B"/>
<path d="M9.9959 0C7.3248 0 4.81355 1.0402 2.92484 2.92895L3.94203 3.94613C5.49137 2.3968 7.63172 1.43852 9.99594 1.43852L9.9959 0Z" fill="#00F2A6"/>
</g>
<defs>
<clipPath id="clip0_0_42">
<rect width="20" height="20" fill="white"/>
</clipPath>
</defs>
</svg>
