<svg width="20" height="20" viewBox="0 0 20 20" fill="none" xmlns="http://www.w3.org/2000/svg">
<path d="M2.49959 10.4552L3.46004 9.77808L5.2275 12.2851L4.26705 12.9622L2.49959 10.4552Z" fill="#E4D5F4"/>
<path d="M3.07304 10.0509L3.46022 9.77792L5.22769 12.2849L4.84051 12.5579L3.07304 10.0509Z" fill="#DDC8F1"/>
<path d="M14.7466 12.2964L16.514 9.78938L17.4745 10.4665L15.707 12.9735L14.7466 12.2964Z" fill="#E4D5F4"/>
<path d="M15.3249 12.7046L17.0924 10.1976L17.4747 10.4672L15.7073 12.9742L15.3249 12.7046Z" fill="#DDC8F1"/>
<path d="M2.65297 10.9726C2.56969 11.0457 2.44152 11.0359 2.37207 10.9495C1.70039 10.1145 1.3327 9.07438 1.3327 7.99844V7.45812C1.33266 3.33914 4.6718 0 8.79078 0H11.2092C15.3282 0 18.6673 3.33914 18.6673 7.45812V7.99844C18.6673 9.07434 18.2996 10.1144 17.6279 10.9495C17.5585 11.0359 17.4303 11.0456 17.347 10.9725L16.1967 9.96293C16.1196 9.89531 16.107 9.77922 16.1695 9.69797C16.5432 9.21187 16.7471 8.61508 16.7471 7.9984V7.45809C16.7471 4.39953 14.2677 1.92012 11.2092 1.92012H8.79074C5.73223 1.92012 3.25277 4.39953 3.25277 7.45809V7.99844C3.25277 8.61512 3.45672 9.21191 3.83043 9.69801C3.89289 9.77926 3.88023 9.89535 3.8032 9.96297L2.65297 10.9726Z" fill="#4073C8"/>
<path d="M11.2092 0H10.3773C14.4964 0 17.8355 3.33914 17.8355 7.45812V7.99844C17.8355 8.95773 17.5424 9.88812 17.003 10.6706L17.347 10.9725C17.4303 11.0457 17.5585 11.0359 17.628 10.9495C18.2996 10.1144 18.6673 9.0743 18.6673 7.99844V7.45812C18.6673 3.33914 15.3282 0 11.2092 0Z" fill="#26457D"/>
<path d="M4.0641 12.5981L5.57562 11.8742L7.5667 16.0315L6.05518 16.7554L4.0641 12.5981Z" fill="#F9F6F9"/>
<path d="M4.86652 12.2137L5.57562 11.8741L7.5667 16.0314L6.8576 16.371L4.86652 12.2137Z" fill="#F1EAF9"/>
<path d="M8.57094 16.5329L7.88312 16.8627C7.78586 16.9093 7.66922 16.8682 7.62258 16.771L5.02914 11.361C4.9825 11.2637 5.02355 11.1471 5.12082 11.1004L5.80863 10.7707C6.43117 10.4723 7.17773 10.735 7.47617 11.3575L9.15777 14.8654C9.45617 15.4879 9.19344 16.2345 8.57094 16.5329Z" fill="#E4D5F4"/>
<path d="M9.15777 14.8654L7.47617 11.3575C7.20273 10.7871 6.55301 10.5191 5.96723 10.7078C6.13762 10.827 6.28074 10.9901 6.37703 11.191L8.61957 15.869C8.70695 16.0513 8.7459 16.2443 8.74207 16.4335C9.23914 16.0903 9.42715 15.4274 9.15777 14.8654Z" fill="#DDC8F1"/>
<path d="M9.08613 19.5762H5.25496C4.63848 19.5762 4.0582 19.3049 3.66281 18.8319C3.26742 18.3589 3.10336 17.7397 3.2127 17.133L3.64254 14.7475C3.67133 14.5877 3.82434 14.4816 3.98391 14.5104C4.14363 14.5392 4.24981 14.692 4.22106 14.8518L3.79121 17.2372C3.71285 17.6721 3.83043 18.1159 4.11383 18.4549C4.39723 18.7939 4.81313 18.9884 5.25496 18.9884H9.08613C9.24844 18.9884 9.38004 19.1199 9.38004 19.2823C9.38004 19.4446 9.24844 19.5762 9.08613 19.5762Z" fill="#26457D"/>
<path d="M2.9043 12.406L2.78808 13.5411C2.76945 13.723 2.80144 13.9066 2.88051 14.0715L4.16379 16.7484C4.24285 16.9134 4.3659 17.0532 4.51941 17.1527L5.47715 17.773C5.61109 17.8597 5.78051 17.8705 5.92441 17.8016L6.56183 17.496C6.65695 17.4504 6.69707 17.3364 6.65148 17.2413L4.35137 12.4431L3.16211 12.0393C3.01824 12.1084 2.92055 12.2472 2.9043 12.406Z" fill="#4073C8"/>
<path d="M6.65148 17.2413L4.0543 11.8234C4.00871 11.7283 3.89465 11.6882 3.79953 11.7338L3.1773 12.0321L5.93902 17.7931C5.93922 17.7936 5.9393 17.794 5.93949 17.7944L6.56183 17.496C6.65695 17.4504 6.69707 17.3364 6.65148 17.2413Z" fill="#26457D"/>
<path d="M13.9348 16.7503L12.4232 16.0264L14.4143 11.8691L15.9258 12.593L13.9348 16.7503Z" fill="#F9F6F9"/>
<path d="M13.9345 16.7505L13.1787 16.3885L15.1698 12.2312L15.9256 12.5932L13.9345 16.7505Z" fill="#F1EAF9"/>
<path d="M11.4291 16.5329L12.1169 16.8627C12.2141 16.9093 12.3308 16.8682 12.3774 16.771L14.9709 11.361C15.0175 11.2637 14.9764 11.1471 14.8792 11.1004L14.1914 10.7707C13.5688 10.4723 12.8223 10.735 12.5238 11.3575L10.8422 14.8654C10.5438 15.4879 10.8065 16.2345 11.4291 16.5329Z" fill="#E4D5F4"/>
<path d="M14.8786 11.1002L14.2392 10.7936L11.4769 16.5559L12.1163 16.8624C12.2139 16.9091 12.3309 16.868 12.3777 16.7704L14.9705 11.3615C15.0174 11.2639 14.9762 11.1469 14.8786 11.1002Z" fill="#DDC8F1"/>
<path d="M17.0957 12.406L17.2119 13.5411C17.2305 13.723 17.1985 13.9066 17.1195 14.0715L15.8362 16.7484C15.7571 16.9134 15.6341 17.0532 15.4805 17.1527L14.5228 17.773C14.3889 17.8597 14.2195 17.8705 14.0755 17.8016L13.4381 17.496C13.343 17.4504 13.3029 17.3364 13.3485 17.2413L15.9457 11.8234C15.9912 11.7283 16.1053 11.6882 16.2004 11.7338L16.8379 12.0393C16.9818 12.1084 17.0794 12.2472 17.0957 12.406Z" fill="#4073C8"/>
<path d="M17.2119 13.5411L17.0957 12.406C17.0794 12.2472 16.9818 12.1084 16.8379 12.0394L16.2004 11.7338C16.1738 11.7211 16.1458 11.7157 16.1182 11.7157C16.1988 11.7904 16.2518 11.8923 16.2633 12.0047L16.3795 13.1398C16.3981 13.3218 16.3661 13.5053 16.2871 13.6702L15.0038 16.3471C14.9247 16.5121 14.8017 16.652 14.6482 16.7514L13.6904 17.3717C13.5941 17.434 13.4796 17.4565 13.3693 17.4389C13.3871 17.4623 13.4098 17.4825 13.4381 17.496L14.0755 17.8016C14.2194 17.8705 14.3888 17.8597 14.5228 17.773L15.4805 17.1527C15.634 17.0532 15.7571 16.9134 15.8361 16.7484L17.1194 14.0715C17.1985 13.9066 17.2305 13.723 17.2119 13.5411Z" fill="#26457D"/>
<path d="M12.535 20H9.64934C9.21043 20 8.85465 19.6442 8.85465 19.2053C8.85465 18.7664 9.21047 18.4106 9.64934 18.4106H12.535C12.9739 18.4106 13.3296 18.7664 13.3296 19.2053C13.3297 19.6442 12.9739 20 12.535 20Z" fill="#26457D"/>
<path d="M12.8962 18.498C12.8526 18.8957 12.5158 19.2053 12.1065 19.2053H9.2209C9.0907 19.2053 8.96816 19.1734 8.85969 19.1179C8.85652 19.1466 8.85465 19.1757 8.85465 19.2053C8.85465 19.6442 9.21047 20 9.64934 20H12.535C12.9739 20 13.3296 19.6442 13.3296 19.2053C13.3297 18.8966 13.1533 18.6296 12.8962 18.498Z" fill="#21386B"/>
<path d="M10 12.4554C10.2453 12.4554 10.4442 12.2565 10.4442 12.0111C10.4442 11.7658 10.2453 11.5669 10 11.5669C9.75467 11.5669 9.55578 11.7658 9.55578 12.0111C9.55578 12.2565 9.75467 12.4554 10 12.4554Z" fill="#E29375"/>
<path d="M10 10.5363C9.8377 10.5363 9.70609 10.4047 9.70609 10.2423V8.2893C9.70609 8.12695 9.8377 7.99539 10 7.99539C10.4356 7.99539 10.8409 7.82117 11.1413 7.50484C11.4414 7.18867 11.5943 6.7741 11.5716 6.3375C11.5291 5.51887 10.8531 4.86465 10.0326 4.84813C10.0219 4.84793 10.0111 4.84781 10.0004 4.84781C9.21703 4.84781 8.54984 5.42461 8.44141 6.20172C8.43129 6.27402 8.42621 6.34797 8.42621 6.4216C8.42621 6.58395 8.29461 6.71551 8.1323 6.71551C7.97 6.71551 7.8384 6.58395 7.8384 6.4216C7.8384 6.32086 7.84543 6.21953 7.85926 6.12047C8.00824 5.0527 8.92461 4.26 10.0002 4.26C10.015 4.26 10.0296 4.26016 10.0445 4.26047C11.1716 4.28313 12.1003 5.18211 12.1587 6.30703C12.1897 6.90621 11.9798 7.47535 11.5676 7.90957C11.2236 8.27191 10.7791 8.49844 10.2939 8.56367V10.2424C10.2939 10.4046 10.1623 10.5363 10 10.5363Z" fill="#E29375"/>
</svg>
