<svg width="20" height="20" viewBox="0 0 20 20" fill="none" xmlns="http://www.w3.org/2000/svg">
<g clip-path="url(#clip0_0_147)">
<path d="M9.87435 0.0673889L7.67848 3.37558C7.61196 3.47578 7.68384 3.60974 7.80408 3.60974H8.94543C9.02868 3.60974 9.09619 3.67724 9.09619 3.76049V7.32898H9.9999H10.9036V3.76053C10.9036 3.67728 10.9711 3.60978 11.0544 3.60978H12.1957C12.316 3.60978 12.3879 3.47586 12.3213 3.37562L10.1256 0.0673889C10.0659 -0.022463 9.934 -0.022463 9.87435 0.0673889Z" fill="#F47C7C"/>
<path d="M10.2766 3.60974H11.0544C10.971 3.60974 10.9036 3.67713 10.9036 3.76058V7.32886H10.1258V3.76058C10.1258 3.67713 10.1932 3.60974 10.2766 3.60974Z" fill="#EE6161"/>
<path d="M12.1957 3.60974H11.4179C11.5382 3.60974 11.6101 3.47575 11.5434 3.37546L9.61108 0.464265L9.87423 0.0675109C9.934 -0.0223409 10.066 -0.0223409 10.1257 0.0675109L12.3213 3.37546C12.3879 3.47575 12.3161 3.60974 12.1957 3.60974Z" fill="#EE6161"/>
<path d="M17.6374 18.3291H2.36256C1.88829 18.3291 1.50385 17.9447 1.50385 17.4704V8.29371C1.50385 7.81945 1.88829 7.435 2.36256 7.435H17.6374C18.1116 7.435 18.4961 7.81945 18.4961 8.29371V17.4704C18.4961 17.9447 18.1116 18.3291 17.6374 18.3291Z" fill="#7CA1B1"/>
<path d="M18.7558 20H1.24416C0.570741 20 0.0248718 19.4541 0.0248718 18.7807V18.632C0.0248718 18.4647 0.16047 18.3291 0.327751 18.3291H2.8143L9.99995 17.6339L16.8385 18.3291H19.6721C19.8394 18.3291 19.975 18.4647 19.975 18.632V18.7807C19.9751 19.4541 19.4292 20 18.7558 20Z" fill="#7CA1B1"/>
<path d="M18.4961 8.29386V17.4703C18.4961 17.9445 18.1118 18.3292 17.6372 18.3292H16.8385C17.3127 18.3292 17.6974 17.9445 17.6974 17.4703V8.29386C17.6974 7.81929 17.3126 7.435 16.8385 7.435H17.6372C18.1118 7.43496 18.4961 7.81929 18.4961 8.29386Z" fill="#678D98"/>
<path d="M19.9751 18.6321V18.7805C19.9751 19.454 19.4292 20 18.7556 20H17.9569C18.6304 20 19.1764 19.454 19.1764 18.7805V18.6321C19.1764 18.4648 19.0408 18.3292 18.8736 18.3292H19.6723C19.8395 18.3292 19.9751 18.4648 19.9751 18.6321Z" fill="#678D98"/>
<path d="M16.9041 17.0572H3.09585C2.94037 17.0572 2.8143 16.9311 2.8143 16.7756V8.98846C2.8143 8.83298 2.94037 8.70691 3.09585 8.70691H16.904C17.0595 8.70691 17.1856 8.83298 17.1856 8.98846V16.7756C17.1856 16.9311 17.0596 17.0572 16.9041 17.0572Z" fill="#D5E3F4"/>
<path d="M17.1855 8.98866V16.7755C17.1855 16.9312 17.0595 17.0572 16.9039 17.0572H16.1016C16.2572 17.0572 16.3832 16.9312 16.3832 16.7755V8.98866C16.3832 8.83302 16.2572 8.70703 16.1016 8.70703H16.9039C17.0595 8.70703 17.1855 8.83302 17.1855 8.98866Z" fill="#B3CEEC"/>
<path d="M9.99995 14.7599C12.823 14.7599 15.1116 12.4713 15.1116 9.64822C15.1116 6.82512 12.823 4.53654 9.99995 4.53654C7.17685 4.53654 4.88828 6.82512 4.88828 9.64822C4.88828 12.4713 7.17685 14.7599 9.99995 14.7599Z" fill="#FEE45A"/>
<path d="M15.1115 9.64832C15.1115 12.4713 12.8229 14.7599 9.99994 14.7599C9.18119 14.7599 8.40733 14.5673 7.72137 14.2255C8.18872 14.3659 8.68455 14.4418 9.19764 14.4418C12.0206 14.4418 14.3092 12.1532 14.3092 9.33021C14.3092 7.32561 13.1555 5.59061 11.4762 4.75261C13.5795 5.38646 15.1115 7.33847 15.1115 9.64832Z" fill="#FED402"/>
<path d="M9.99998 6.47695C9.83384 6.47695 9.6991 6.34226 9.6991 6.17607V5.75419C9.6991 5.58805 9.8338 5.45331 9.99998 5.45331C10.1662 5.45331 10.3009 5.58801 10.3009 5.75419V6.17607C10.3009 6.34226 10.1661 6.47695 9.99998 6.47695Z" fill="#7CA1B1"/>
<path d="M9.99998 13.8431C9.83384 13.8431 9.6991 13.7084 9.6991 13.5422V13.1203C9.6991 12.9542 9.8338 12.8194 9.99998 12.8194C10.1662 12.8194 10.3009 12.9541 10.3009 13.1203V13.5422C10.3009 13.7083 10.1661 13.8431 9.99998 13.8431Z" fill="#7CA1B1"/>
<path d="M7.54481 7.49391C7.46781 7.49391 7.39081 7.46454 7.33206 7.40578L7.03375 7.10747C6.91624 6.99 6.91624 6.79948 7.03375 6.68201C7.15122 6.56453 7.34175 6.56453 7.45922 6.68201L7.75753 6.98031C7.87504 7.09779 7.87504 7.28831 7.75753 7.40578C7.69881 7.46454 7.62181 7.49391 7.54481 7.49391Z" fill="#7CA1B1"/>
<path d="M12.7535 12.7025C12.6765 12.7025 12.5995 12.6731 12.5407 12.6144L12.2424 12.3161C12.1249 12.1986 12.1249 12.0081 12.2424 11.8906C12.3599 11.7731 12.5504 11.7731 12.6679 11.8906L12.9662 12.1889C13.0837 12.3064 13.0837 12.4969 12.9662 12.6144C12.9075 12.6731 12.8305 12.7025 12.7535 12.7025Z" fill="#7CA1B1"/>
<path d="M6.52784 9.94906H6.10597C5.93982 9.94906 5.80508 9.81436 5.80508 9.64818C5.80508 9.48199 5.93978 9.34729 6.10597 9.34729H6.52784C6.69399 9.34729 6.82873 9.48199 6.82873 9.64818C6.82873 9.81436 6.69403 9.94906 6.52784 9.94906Z" fill="#7CA1B1"/>
<path d="M13.894 9.94906H13.4721C13.3059 9.94906 13.1712 9.81436 13.1712 9.64818C13.1712 9.48199 13.3059 9.34729 13.4721 9.34729H13.894C14.0601 9.34729 14.1948 9.48199 14.1948 9.64818C14.1948 9.81436 14.0601 9.94906 13.894 9.94906Z" fill="#7CA1B1"/>
<path d="M7.2465 12.7025C7.1695 12.7025 7.0925 12.6731 7.03375 12.6144C6.91628 12.4969 6.91628 12.3064 7.03379 12.1889L7.33209 11.8906C7.44957 11.7731 7.64009 11.7731 7.7576 11.8906C7.87507 12.0081 7.87507 12.1986 7.7576 12.3161L7.45929 12.6144C7.4005 12.6731 7.32346 12.7025 7.2465 12.7025Z" fill="#7CA1B1"/>
<path d="M12.4551 7.49391C12.3781 7.49391 12.3011 7.46454 12.2424 7.40578C12.1249 7.28831 12.1249 7.09779 12.2424 6.98031L12.5407 6.68201C12.6582 6.56453 12.8487 6.56453 12.9662 6.68201C13.0837 6.79948 13.0837 6.99 12.9662 7.10747L12.6679 7.40578C12.6091 7.46454 12.5321 7.49391 12.4551 7.49391Z" fill="#7CA1B1"/>
<path d="M9.99998 9.94905C9.92341 9.94905 9.8468 9.91999 9.78813 9.86182C9.67015 9.74482 9.66937 9.55433 9.78637 9.43635L11.4369 7.77206C11.5539 7.65408 11.7444 7.6533 11.8624 7.7703C11.9804 7.8873 11.9811 8.07783 11.8641 8.19577L10.2136 9.86006C10.1548 9.91936 10.0774 9.94905 9.99998 9.94905Z" fill="#537983"/>
<path d="M6.26964 15.0607H4.50636C4.34021 15.0607 4.20547 14.926 4.20547 14.7598C4.20547 14.5937 4.34017 14.459 4.50636 14.459H6.26964C6.43579 14.459 6.57053 14.5937 6.57053 14.7598C6.57053 14.926 6.43579 15.0607 6.26964 15.0607Z" fill="#7CA1B1"/>
<path d="M6.73736 16.2662H4.97407C4.80793 16.2662 4.67319 16.1315 4.67319 15.9653C4.67319 15.7992 4.80789 15.6645 4.97407 15.6645H6.73736C6.9035 15.6645 7.03824 15.7992 7.03824 15.9653C7.03824 16.1315 6.9035 16.2662 6.73736 16.2662Z" fill="#7CA1B1"/>
<path d="M9.99994 10.2949C10.3571 10.2949 10.6466 10.0054 10.6466 9.64821C10.6466 9.29105 10.3571 9.00151 9.99994 9.00151C9.64278 9.00151 9.35324 9.29105 9.35324 9.64821C9.35324 10.0054 9.64278 10.2949 9.99994 10.2949Z" fill="#7CA1B1"/>
<path d="M10.6467 9.64833C10.6467 10.0054 10.357 10.295 10 10.295C9.7942 10.295 9.61086 10.1987 9.49292 10.0491C9.84354 10.0418 10.1259 9.75541 10.1259 9.4028C10.1259 9.25115 10.0742 9.11235 9.98675 9.00202C9.99117 9.00163 9.99558 9.00163 10 9.00163C10.357 9.00167 10.6467 9.29092 10.6467 9.64833Z" fill="#678D98"/>
</g>
<defs>
<clipPath id="clip0_0_147">
<rect width="20" height="20" fill="white"/>
</clipPath>
</defs>
</svg>
