<svg width="20" height="20" viewBox="0 0 20 20" fill="none" xmlns="http://www.w3.org/2000/svg">
<g clip-path="url(#clip0_0_10)">
<path d="M3.38667 12.83L2.19648 13.4417C1.42984 13.878 1.58941 14.8273 2.35605 15.2636C2.35605 15.2636 10.2871 20.0854 10.8734 19.7971C10.9092 19.7796 10.9445 19.7609 10.9794 19.741L18.8542 15.2599C19.6208 14.8236 19.6208 13.7187 18.8542 13.2824L17.6525 12.5986C17.6525 12.5986 10.1093 16.0438 9.99995 16.0416C8.33863 16.0079 3.66863 12.6696 3.38667 12.83Z" fill="#BBE0FF"/>
<path d="M2.49855 13.5065C2.94633 13.2517 3.4952 13.2517 3.94297 13.5065L4.3816 13.7561L8.65937 15.7289C9.07844 15.9673 10.9266 15.901 11.3456 15.6625L15.6184 13.7561L17.6525 12.5986L10.9794 8.80124C10.3721 8.4557 9.62777 8.4557 9.02051 8.80124L1.14578 13.2824C0.379141 13.7186 0.379141 14.8236 1.14578 15.2598L9.02055 19.741C9.59289 20.0667 10.287 20.0851 10.8734 19.7968C10.8376 19.7793 10.8021 19.7609 10.7672 19.741L2.49855 15.0357C1.90574 14.6984 1.90574 13.8439 2.49855 13.5065Z" fill="#9DC9EB"/>
<path d="M4.32121 13.7905L4.38161 13.7561L9.41328 16.0016C9.77707 15.7946 10.223 15.7946 10.5868 16.0016L15.6184 13.7561L15.6788 13.7905C16.0515 14.0025 16.0515 14.5397 15.6788 14.7518L10.5867 17.6494C10.2229 17.8564 9.77703 17.8564 9.41325 17.6494L4.32118 14.7518C3.94856 14.5397 3.94856 14.0025 4.32121 13.7905Z" fill="#9DC9EB"/>
<path d="M10.5867 10.8929C10.2229 10.6859 9.77703 10.6859 9.41324 10.8929L4.38156 13.7561L8.62246 16.1694C9.04152 16.4079 9.51785 16.5339 9.99996 16.5339C10.4821 16.5339 10.9584 16.4079 11.3775 16.1694L15.6184 13.7561L10.5867 10.8929Z" fill="#7EBAE6"/>
<path d="M10.4896 12.0121L3.20719 8.66105C1.63137 9.07996 1.3634 10.4788 2.13004 10.9151C2.13004 10.9151 10.2872 15.8143 10.8735 15.526C10.9093 15.5084 10.9446 15.4897 10.9795 15.4699L18.8543 10.9887C19.6209 10.5525 19.6209 9.44754 18.8543 9.01129L17.6526 8.3275C17.0453 7.98191 11.0969 11.6666 10.4896 12.0121Z" fill="#F37C7C"/>
<path d="M2.49855 9.2354C2.94633 8.98059 3.4952 8.98059 3.94297 9.2354L4.3816 9.48501L8.72621 11.4578C9.14527 11.6962 10.7936 11.7461 11.2127 11.5076L15.6184 9.48501L17.6526 8.32747L10.9795 4.53013C10.3722 4.18458 9.62785 4.18458 9.02059 4.53013L1.14578 9.01126C0.379141 9.44751 0.379141 10.5525 1.14578 10.9887L9.02055 15.4699C9.59289 15.7956 10.287 15.814 10.8734 15.5257C10.8376 15.5081 10.8021 15.4897 10.7672 15.4699L2.49855 10.7646C1.90574 10.4272 1.90574 9.57278 2.49855 9.2354Z" fill="#EB5468"/>
<path d="M4.32121 9.51937L4.38161 9.48499C4.56504 9.38062 8.88547 11.806 10.1089 11.8725C11.3759 11.9414 15.4381 9.38238 15.6184 9.48499L15.6788 9.51937C16.0515 9.73144 16.0515 10.2686 15.6788 10.4807L10.5867 13.3783C10.2229 13.5853 9.77703 13.5853 9.41325 13.3783L4.32118 10.4807C3.94856 10.2685 3.94856 9.73144 4.32121 9.51937Z" fill="#EB5468"/>
<path d="M10.5867 6.62172C10.2229 6.41473 9.77703 6.41473 9.41324 6.62172L4.38156 9.485L8.62246 11.8983C9.04152 12.1367 9.51785 12.2628 9.99996 12.2628C10.4821 12.2628 10.9584 12.1367 11.3775 11.8983L15.6184 9.485L10.5867 6.62172Z" fill="#D63658"/>
<path d="M2.03026 4.83122C1.26362 5.26747 1.2437 6.07051 2.0103 6.50676L8.39339 10.1837C8.96573 10.5094 10.2871 11.5432 10.8734 11.2549C10.9092 11.2374 10.9445 11.2186 10.9794 11.1988L18.8542 6.71766C19.6208 6.28141 19.6208 5.17645 18.8542 4.7402L10.9794 0.258991C10.9446 0.239147 10.9092 0.220436 10.8735 0.202858C10.2871 -0.0854234 2.03026 4.83122 2.03026 4.83122Z" fill="#FFE07D"/>
<path d="M4.32121 5.24825L9.41328 2.35063C9.77707 2.14364 10.223 2.14364 10.5868 2.35063L15.6788 5.24825C16.0515 5.46032 16.0515 5.99747 15.6788 6.20954L10.5867 9.10716C10.2229 9.31415 9.77703 9.31415 9.41325 9.10716L4.32118 6.20954C3.94856 5.99747 3.94856 5.46032 4.32121 5.24825Z" fill="#FFD064"/>
<path d="M10.7672 11.1988L2.49855 6.49348C1.9057 6.15613 1.9057 5.30164 2.49855 4.9643L10.7672 0.258986C10.8021 0.239142 10.8376 0.220705 10.8734 0.203127C10.287 -0.0851156 9.59293 -0.0667172 9.02055 0.258986L1.14578 4.74016C0.379141 5.17641 0.379141 6.28137 1.14578 6.71762L9.02055 11.1988C9.59289 11.5245 10.287 11.5429 10.8734 11.2546C10.8376 11.2371 10.8021 11.2186 10.7672 11.1988Z" fill="#FFD064"/>
</g>
<defs>
<clipPath id="clip0_0_10">
<rect width="20" height="20" fill="white"/>
</clipPath>
</defs>
</svg>
