<svg width="20" height="20" viewBox="0 0 20 20" fill="none" xmlns="http://www.w3.org/2000/svg">
<g clip-path="url(#clip0_0_335)">
<path d="M18.2156 6.43123L18.1891 10C18.1891 15.5229 14.5227 20 10 20C15.5229 20 20 15.5229 20 10L18.2156 6.43123Z" fill="#48459D"/>
<path d="M18.7928 10C18.7928 8.74258 18.5881 7.53972 18.2156 6.43123L18.1891 6.37827L16.3783 10C16.3783 13.5226 13.5226 16.3783 10 16.3783V20C14.8561 20 18.7928 15.5229 18.7928 10Z" fill="#6461AC"/>
<path d="M10 16.3783C6.47738 16.3783 3.62173 13.5226 3.62173 10H0C0 15.5229 4.47714 20 10 20L11.8109 18.1891L10 16.3783Z" fill="#807DBB"/>
<path d="M3.62173 10C3.62173 6.47738 6.47738 3.62173 10 3.62173V0C4.47714 0 0 4.47714 0 10L1.81087 11.8109L3.62173 10Z" fill="#B6B5D8"/>
<path d="M10 0L20 10C20 4.47714 15.5229 0 10 0Z" fill="#363476"/>
<path d="M10 0L8.18913 1.81087L10 3.62173C13.5226 3.62173 16.3783 6.47738 16.3783 10L18.1891 8.18913L18.7215 8.72153C18.1695 3.80241 14.4753 0 10 0Z" fill="#48459D"/>
<path d="M14.5133 10.7042C14.5489 10.4747 14.5674 10.2395 14.5674 10C14.5674 9.76048 14.5489 9.52531 14.5133 9.29578L13.6319 9.09457C13.5412 8.7297 13.3971 8.386 13.2082 8.07223L13.6889 7.30692C13.4103 6.92588 13.0741 6.58966 12.693 6.31099L11.9277 6.79175C11.614 6.60282 11.2702 6.45871 10.9054 6.36805L10.7041 5.48664C10.4746 5.45111 10.2394 5.43256 9.99992 5.43256C9.7604 5.43256 9.52523 5.45111 9.29569 5.48664L9.09449 6.36805C8.72962 6.45871 8.38591 6.60282 8.07215 6.79175L7.30684 6.31099C6.92579 6.58966 6.58958 6.92584 6.3109 7.30692L6.79163 8.07223C6.6027 8.38596 6.45863 8.7297 6.36793 9.09457L5.48652 9.29578C5.45099 9.52531 5.43243 9.76048 5.43243 10C5.43243 10.2395 5.45094 10.4747 5.48652 10.7042L6.36793 10.9054C6.45859 11.2703 6.6027 11.614 6.79163 11.9278L6.3109 12.6931C6.58958 13.0741 6.92575 13.4103 7.30684 13.689L8.07215 13.2083C8.38587 13.3972 8.72962 13.5413 9.09449 13.632L9.29569 14.5134C9.52523 14.5489 9.7604 14.5674 9.99992 14.5674C10.2394 14.5674 10.4746 14.5489 10.7041 14.5134L10.9054 13.632C11.2702 13.5413 11.6139 13.3972 11.9277 13.2083L12.693 13.689C13.074 13.4103 13.4103 13.0742 13.6889 12.6931L13.2082 11.9278C13.3971 11.614 13.5412 11.2703 13.6319 10.9054L14.5133 10.7042ZM10 11.2072C9.33324 11.2072 8.79276 10.6668 8.79276 10C8.79276 9.33324 9.33324 8.79276 10 8.79276C10.6668 8.79276 11.2072 9.33324 11.2072 10C11.2072 10.6668 10.6668 11.2072 10 11.2072Z" fill="#B6B5D8"/>
<path d="M10 7.84708C8.81099 7.84708 7.84708 8.81099 7.84708 10C7.84708 11.189 8.81099 12.1529 10 12.1529C11.189 12.1529 12.1529 11.189 12.1529 10C12.1529 8.81099 11.189 7.84708 10 7.84708ZM10 10.6036C9.66664 10.6036 9.39638 10.3334 9.39638 10C9.39638 9.66664 9.66664 9.39638 10 9.39638C10.3334 9.39638 10.6036 9.66664 10.6036 10C10.6036 10.3334 10.3334 10.6036 10 10.6036Z" fill="#807DBB"/>
</g>
<defs>
<clipPath id="clip0_0_335">
<rect width="20" height="20" fill="white"/>
</clipPath>
</defs>
</svg>
