<svg width="25" height="25" viewBox="0 0 25 25" fill="none" xmlns="http://www.w3.org/2000/svg">
<path d="M20.9933 12.4999C20.9933 13.1036 20.763 13.7079 20.3024 14.169C19.8408 14.6306 19.2371 14.8604 18.6333 14.8604C18.0295 14.8604 17.4248 14.6306 16.9637 14.169L15.2946 12.4999H15.294L13.3298 13.5373L12.5 15.295L14.1847 16.9802C15.4222 18.2177 17.0446 18.835 18.6655 18.835C20.2863 18.835 21.9072 18.2177 23.1447 16.9802C24.3817 15.7426 25 14.1218 25 12.4999L22.9253 11.6182L20.9933 12.4999Z" fill="#1A5AD9"/>
<path d="M0 12.5C0 10.8786 0.618262 9.25725 1.85527 8.02019C4.32881 5.54666 8.34023 5.54666 10.8153 8.02019L12.5 9.70486L11.8776 11.722L9.70537 12.5H9.70483L8.03628 10.8309C7.11406 9.90925 5.61929 9.90925 4.69761 10.8309C4.23701 11.2915 4.00674 11.8958 4.00674 12.5L1.97095 13.0187L0 12.5Z" fill="#1A5AD9"/>
<path d="M20.9933 12.5C20.9933 11.8957 20.763 11.2915 20.3024 10.8309C19.3807 9.9092 17.8859 9.9092 16.9637 10.8309L15.2947 12.5H15.2941L11.7739 13.5373L9.70544 12.5L12.5 9.70486L14.1847 8.02019C16.6598 5.54666 20.6712 5.54666 23.1448 8.02019C24.3818 9.2572 25 10.8786 25 12.5H20.9933Z" fill="#28C76F"/>
<path d="M9.70537 12.5L8.03628 14.1691C7.57519 14.6307 6.97041 14.8605 6.36665 14.8605C5.76294 14.8605 5.15918 14.6307 4.69756 14.1691C4.23696 13.708 4.00669 13.1038 4.00669 12.5H0C0 14.1219 0.618262 15.7427 1.85527 16.9803C3.09282 18.2178 4.71367 18.8351 6.33452 18.8351C7.95537 18.8351 9.57778 18.2178 10.8153 16.9803L12.5 15.2951L15.2941 12.5H9.70537Z" fill="#A8C1F1"/>
</svg>
