<svg width="20" height="20" viewBox="0 0 20 20" fill="none" xmlns="http://www.w3.org/2000/svg">
<g clip-path="url(#clip0_0_90)">
<path d="M11.8109 18.4282H8.18906V9.66644C8.18906 9.44412 8.36926 9.26392 8.59158 9.26392H11.4085C11.6307 9.26392 11.8109 9.44412 11.8109 9.66644V18.4282Z" fill="#FFCA28"/>
<path d="M10.6036 9.26392V18.4282H11.8109V9.66644C11.8109 9.44412 11.6307 9.26392 11.4084 9.26392H10.6036Z" fill="#FFB300"/>
<path d="M17.2032 18.4282H13.5815V4.43498C13.5815 4.21266 13.7616 4.03261 13.9839 4.03261H16.8008C17.023 4.03261 17.2032 4.21266 17.2032 4.43498V18.4282Z" fill="#42A5F5"/>
<path d="M15.9959 4.03261V18.4282H17.2032V4.43498C17.2032 4.21266 17.023 4.03261 16.8008 4.03261H15.9959Z" fill="#2196F3"/>
<path d="M6.41845 18.4282H2.79678V13.2881C2.79678 13.0658 2.97699 12.8857 3.19916 12.8857H6.01608C6.2384 12.8857 6.4186 13.0658 6.4186 13.2881V18.4282H6.41845Z" fill="#FF5622"/>
<path d="M5.21118 12.8857V18.4282H6.41845V13.2881C6.41845 13.0658 6.23825 12.8857 6.01608 12.8857H5.21118Z" fill="#E8491D"/>
<path d="M19.3963 18.9219H0.603637C0.270233 18.9219 0 18.6517 0 18.3183C0 17.9849 0.270233 17.7147 0.603637 17.7147H19.3963C19.7297 17.7147 20 17.9849 20 18.3183C20 18.6517 19.7297 18.9219 19.3963 18.9219Z" fill="#D4D4D4"/>
<path d="M19.3963 17.7147H18.1891C18.5225 17.7147 18.7927 17.9849 18.7927 18.3183C18.7927 18.6517 18.5225 18.9219 18.1891 18.9219H19.3963C19.7297 18.9219 20 18.6517 20 18.3183C20 17.9849 19.7297 17.7147 19.3963 17.7147Z" fill="#BDBDBD"/>
<path d="M10.8534 3.51533L4.68887 8.03711L9.16152 1.81779L10.8534 3.51533Z" fill="#8CF2FF"/>
<path d="M11.3548 4.45695L8.23776 1.32936C8.13659 1.22789 8.20846 1.0547 8.35174 1.0547H11.4688C11.5578 1.0547 11.6298 1.12672 11.6298 1.21568V4.34342C11.6298 4.48686 11.4561 4.55872 11.3548 4.45695Z" fill="#BDF9FF"/>
</g>
<defs>
<clipPath id="clip0_0_90">
<rect width="20" height="20" fill="white"/>
</clipPath>
</defs>
</svg>
