<svg width="20" height="20" viewBox="0 0 20 20" fill="none" xmlns="http://www.w3.org/2000/svg">
<g clip-path="url(#clip0_0_303)">
<path d="M19.5719 15.3843C19.5379 15.4218 19.0152 15.9909 18.2617 16.4722L16.2633 16.6187L16.659 18.2707C16.4945 18.7727 16.2516 19.343 15.8965 19.8707C15.8402 19.9543 15.7477 20 15.6531 20C15.6039 20 15.5539 19.9875 15.5078 19.9614C15.4258 19.9141 13.6824 18.9043 11.9164 16.8894C11.6941 16.6355 11.4711 16.3656 11.2512 16.0796C11.1578 15.9582 11.1734 15.7855 11.2871 15.6832L12.4832 14.6066L14.0965 13.155L15.2856 12.0846C15.3457 12.0307 15.4258 12.0037 15.5063 12.0108C15.5867 12.0174 15.6613 12.0573 15.7113 12.1209C15.9254 12.3916 16.1496 12.6467 16.384 12.8858C17.2719 13.7932 18.3027 14.4737 19.4594 14.9136C19.55 14.9479 19.6176 15.0249 19.6402 15.119C19.6625 15.2132 19.6371 15.3124 19.5719 15.3843Z" fill="#3CAF91"/>
<path d="M16.384 12.8858C16.2875 13.0319 16.1875 13.1756 16.0844 13.317C15.0309 14.7604 13.6332 15.9573 11.9164 16.8894C11.6941 16.6355 11.4711 16.3655 11.2512 16.0796C11.1578 15.9581 11.1734 15.7855 11.2871 15.6831L12.4832 14.6065L14.0965 13.1549L15.2856 12.0846C15.3457 12.0307 15.4258 12.0037 15.5063 12.0107C15.5867 12.0174 15.6613 12.0572 15.7113 12.1209C15.9254 12.3916 16.1496 12.6467 16.384 12.8858Z" fill="#218780"/>
<path d="M18.2617 16.4722C17.875 16.7191 17.4281 16.9429 16.9551 17.0597C16.9152 17.3093 16.8289 17.7534 16.659 18.2707C16.2805 18.0406 14.8285 17.1238 13.5539 15.8488C13.1695 15.4644 12.8012 15.0472 12.4832 14.6065L14.0965 13.1549C14.4426 13.5995 14.8262 14.0034 15.2184 14.3651C16.4758 15.5249 17.8176 16.2488 18.2617 16.4722Z" fill="#E5EAF9"/>
<path d="M8.74883 16.0796C8.52891 16.3655 8.30626 16.6351 8.0836 16.889C6.31798 18.9043 4.57423 19.9141 4.49219 19.9613C4.4461 19.9875 4.3961 20 4.34688 20C4.25235 20 4.15977 19.9543 4.10352 19.8707C3.74844 19.343 3.50548 18.7726 3.34102 18.2707L3.73673 16.6187L1.73829 16.4722C0.984772 15.9909 0.462116 15.4218 0.428132 15.3843C0.362897 15.3124 0.337507 15.2132 0.359772 15.119C0.382429 15.0249 0.450007 14.9479 0.540632 14.9136C1.69727 14.4737 2.72813 13.7932 3.61602 12.8858C3.8504 12.6467 4.07462 12.3916 4.28868 12.1209C4.33868 12.0573 4.41329 12.0174 4.49376 12.0108C4.57423 12.0037 4.6543 12.0307 4.71446 12.0846L5.90352 13.155L7.5168 14.6066L8.7129 15.6832C8.82657 15.7855 8.84219 15.9581 8.74883 16.0796Z" fill="#3CAF91"/>
<path d="M8.74884 16.0796C8.52892 16.3655 8.30626 16.6351 8.08361 16.889C6.36681 15.957 4.96915 14.76 3.91564 13.317C3.81251 13.1756 3.71251 13.0319 3.61603 12.8858C3.8504 12.6467 4.07462 12.3916 4.28868 12.1209C4.33868 12.0573 4.41329 12.0174 4.49376 12.0108C4.57423 12.0037 4.65431 12.0307 4.71447 12.0846L5.90353 13.155L7.51681 14.6066L8.7129 15.6832C8.82658 15.7855 8.8422 15.9581 8.74884 16.0796Z" fill="#218780"/>
<path d="M7.5168 14.6065C7.19883 15.0471 6.83047 15.4643 6.44609 15.8488C5.17148 17.1238 3.71953 18.0406 3.34102 18.2707C3.17109 17.7535 3.08477 17.3093 3.04492 17.0597C2.57187 16.9429 2.125 16.7191 1.73828 16.4722C2.18242 16.2488 3.52422 15.5249 4.78164 14.3651C5.17383 14.0034 5.55742 13.5995 5.90352 13.1549L7.5168 14.6065Z" fill="#E5EAF9"/>
<path d="M5.90352 13.155L7.5168 14.6066C7.19883 15.0472 6.83047 15.4644 6.4461 15.8488C5.83594 15.3968 5.28047 14.9019 4.78165 14.3652C5.17383 14.0034 5.55743 13.5995 5.90352 13.155Z" fill="#CBD6EF"/>
<path d="M15.2184 14.3651C14.7192 14.9018 14.1637 15.3968 13.5539 15.8488C13.1695 15.4644 12.8012 15.0472 12.4832 14.6065L14.0965 13.1549C14.4426 13.5995 14.8262 14.0034 15.2184 14.3651Z" fill="#CBD6EF"/>
<path d="M17.4367 8.04039C17.1305 9.85293 16.4633 11.4737 15.4535 12.8565C14.193 14.5831 12.3957 15.9378 10.1121 16.8827C10.0762 16.8976 10.0379 16.905 10 16.905C9.96213 16.905 9.92385 16.8976 9.88791 16.8827C7.60432 15.9378 5.80705 14.5831 4.5465 12.8565C3.53674 11.4736 2.86955 9.85289 2.5633 8.04039C2.04416 4.96688 2.73596 2.43676 2.76564 2.33051C2.80549 2.18793 2.94572 2.0977 3.09221 2.11996C5.58713 2.5016 7.26564 1.93988 8.23478 1.40121C9.28283 0.81875 9.75236 0.135937 9.75666 0.129297C9.81135 0.0484375 9.90236 0 9.99963 0H10.0008C10.0985 0.000390625 10.1895 0.0488281 10.2438 0.130078C10.2438 0.130078 10.2442 0.130859 10.2446 0.132031C10.2735 0.172656 10.7453 0.834375 11.7653 1.40121C12.7344 1.93988 14.4129 2.50164 16.9078 2.11996C17.0547 2.0977 17.1946 2.18793 17.2344 2.33051C17.2641 2.43676 17.9559 4.96688 17.4367 8.04039Z" fill="#FFE0A9"/>
<path d="M16.0723 7.90602C15.466 11.3268 13.4641 13.8436 10.1227 15.3863C10.084 15.4042 10.0418 15.4132 10 15.4132C9.9582 15.4132 9.91601 15.4042 9.87734 15.3863C6.53593 13.8436 4.53398 11.3268 3.92773 7.90602C3.6414 6.29231 3.73632 4.8118 3.8664 3.85399C3.88671 3.7036 4.01835 3.59383 4.16992 3.60086C6.42109 3.70438 8.00429 3.10047 8.93632 2.57543C9.24765 2.39965 9.54453 2.2016 9.81914 1.98598C9.92539 1.90238 10.0746 1.90238 10.1809 1.98598C10.1809 1.98598 10.1809 1.98598 10.1812 1.98637C10.4559 2.2016 10.7523 2.39965 11.0637 2.57543C11.9957 3.10043 13.5785 3.70438 15.8297 3.60086C15.9824 3.59344 16.1133 3.7036 16.1336 3.85399C16.2637 4.8118 16.3586 6.29231 16.0723 7.90602Z" fill="#FFA757"/>
<path d="M12.8251 7.74953C12.7895 7.63836 12.6912 7.55895 12.5751 7.54742C12.548 7.54473 11.9402 7.48504 11.0208 7.45281C10.6192 6.40992 10.2694 5.65488 10.2657 5.64695C10.2177 5.54356 10.114 5.47746 10 5.47746C9.88599 5.47746 9.78236 5.5436 9.73431 5.64695C9.73064 5.65488 9.38208 6.40719 8.98142 7.44723C8.43478 7.46477 7.91197 7.49844 7.42458 7.54746C7.30849 7.55914 7.21044 7.6386 7.17486 7.74973C7.13931 7.86086 7.1731 7.98246 7.26083 8.05934C7.59248 8.34988 7.98548 8.66399 8.43115 8.99477C8.22107 9.64449 8.05552 10.2468 7.93845 10.7879C7.91388 10.9014 7.95869 11.0188 8.05271 11.087C8.10384 11.1241 8.16419 11.1428 8.22482 11.1428C8.27568 11.1428 8.32669 11.1296 8.37248 11.1029C8.37998 11.0985 9.09267 10.6817 9.99998 10.0856C10.9073 10.6817 11.62 11.0985 11.6275 11.1029C11.7277 11.1614 11.8531 11.1552 11.9472 11.087C12.0412 11.0187 12.0861 10.9014 12.0615 10.7879C11.9444 10.247 11.7789 9.64469 11.5688 8.99477C12.0145 8.66403 12.4075 8.34988 12.7391 8.05934C12.827 7.98238 12.8607 7.8607 12.8251 7.74953Z" fill="#FFE0A9"/>
<path d="M14.4678 5.62624C14.6296 5.62624 14.7607 5.49508 14.7607 5.33327C14.7607 5.17147 14.6296 5.04031 14.4678 5.04031C14.306 5.04031 14.1748 5.17147 14.1748 5.33327C14.1748 5.49508 14.306 5.62624 14.4678 5.62624Z" fill="#FFCB78"/>
<path d="M14.4678 7.08351C14.6296 7.08351 14.7607 6.95234 14.7607 6.79054C14.7607 6.62874 14.6296 6.49757 14.4678 6.49757C14.306 6.49757 14.1748 6.62874 14.1748 6.79054C14.1748 6.95234 14.306 7.08351 14.4678 7.08351Z" fill="#FFCB78"/>
<path d="M10.0002 13.7906C10.162 13.7906 10.2931 13.6595 10.2931 13.4977C10.2931 13.3358 10.162 13.2047 10.0002 13.2047C9.83835 13.2047 9.70718 13.3358 9.70718 13.4977C9.70718 13.6595 9.83835 13.7906 10.0002 13.7906Z" fill="#FFCB78"/>
<path d="M8.63297 12.9703C8.79477 12.9703 8.92593 12.8391 8.92593 12.6773C8.92593 12.5155 8.79477 12.3843 8.63297 12.3843C8.47116 12.3843 8.34 12.5155 8.34 12.6773C8.34 12.8391 8.47116 12.9703 8.63297 12.9703Z" fill="#FFCB78"/>
<path d="M11.3673 12.9703C11.5291 12.9703 11.6603 12.8391 11.6603 12.6773C11.6603 12.5155 11.5291 12.3843 11.3673 12.3843C11.2055 12.3843 11.0744 12.5155 11.0744 12.6773C11.0744 12.8391 11.2055 12.9703 11.3673 12.9703Z" fill="#FFCB78"/>
<path d="M12.9932 5.32859C13.155 5.32859 13.2861 5.19742 13.2861 5.03562C13.2861 4.87382 13.155 4.74265 12.9932 4.74265C12.8314 4.74265 12.7002 4.87382 12.7002 5.03562C12.7002 5.19742 12.8314 5.32859 12.9932 5.32859Z" fill="#FFCB78"/>
<path d="M5.53223 5.62624C5.69403 5.62624 5.8252 5.49508 5.8252 5.33327C5.8252 5.17147 5.69403 5.04031 5.53223 5.04031C5.37042 5.04031 5.23926 5.17147 5.23926 5.33327C5.23926 5.49508 5.37042 5.62624 5.53223 5.62624Z" fill="#FFCB78"/>
<path d="M5.53223 7.08351C5.69403 7.08351 5.8252 6.95234 5.8252 6.79054C5.8252 6.62874 5.69403 6.49757 5.53223 6.49757C5.37042 6.49757 5.23926 6.62874 5.23926 6.79054C5.23926 6.95234 5.37042 7.08351 5.53223 7.08351Z" fill="#FFCB78"/>
<path d="M7.00684 5.32859C7.16864 5.32859 7.2998 5.19742 7.2998 5.03562C7.2998 4.87382 7.16864 4.74265 7.00684 4.74265C6.84503 4.74265 6.71387 4.87382 6.71387 5.03562C6.71387 5.19742 6.84503 5.32859 7.00684 5.32859Z" fill="#FFCB78"/>
<path d="M17.4367 8.04039C17.1305 9.85293 16.4633 11.4737 15.4535 12.8565C14.193 14.5831 12.3957 15.9378 10.1121 16.8827C18.3421 12.3843 16.9559 4.58484 16.6496 3.08637C16.6188 2.93402 16.4813 2.82816 16.3262 2.83519C11.2934 3.06336 10.2738 0.217577 10.2445 0.13203C10.2735 0.172655 10.7453 0.834374 11.7652 1.40121C12.7344 1.93988 14.4129 2.50164 16.9078 2.11996C17.0547 2.09769 17.1945 2.18793 17.2344 2.33051C17.2641 2.43676 17.9559 4.96687 17.4367 8.04039Z" fill="#FFCB78"/>
<path d="M16.0723 7.90601C15.466 11.3268 13.4641 13.8436 10.1227 15.3862C15.7502 12.0425 15.5785 6.06058 15.4531 4.65219C15.4379 4.4818 15.3001 4.34773 15.1293 4.33863C11.6786 4.15433 10.2044 2.02062 10.1812 1.9864C10.4559 2.20164 10.7523 2.39969 11.0637 2.57547C11.9957 3.10047 13.5785 3.70441 15.8297 3.6009C15.9824 3.59347 16.1133 3.70363 16.1336 3.85402C16.2637 4.81179 16.3586 6.2923 16.0723 7.90601Z" fill="#FF895A"/>
</g>
<defs>
<clipPath id="clip0_0_303">
<rect width="20" height="20" fill="white"/>
</clipPath>
</defs>
</svg>
