<svg width="20" height="20" viewBox="0 0 20 20" fill="none" xmlns="http://www.w3.org/2000/svg">
<path fill-rule="evenodd" clip-rule="evenodd" d="M10.9909 1.18406C11.4016 1.25539 11.7988 1.36258 12.1805 1.50203L12.4784 0.986562C12.6402 0.706406 13.0018 0.609336 13.2819 0.771211L14.3699 1.39941C14.65 1.56117 14.747 1.92281 14.5852 2.20285L14.2862 2.72059C14.6009 2.98398 14.8921 3.27523 15.1566 3.58996L15.6733 3.29199C15.9533 3.13008 16.3149 3.22723 16.4767 3.50742L17.1049 4.59422C17.2668 4.87434 17.1697 5.23586 16.8896 5.39758L16.374 5.69566C16.5135 6.07723 16.6207 6.47566 16.6921 6.88523H17.288C17.6116 6.88523 17.876 7.14961 17.876 7.47324V8.72867C17.876 9.05223 17.6116 9.31672 17.288 9.31672H16.6921C16.6207 9.72738 16.5136 10.1246 16.374 10.5074L16.8896 10.8043C17.1697 10.966 17.2668 11.3276 17.1049 11.6077L16.4767 12.6957C16.3149 12.9758 15.9533 13.0728 15.6733 12.9111L15.1566 12.6121C14.8921 12.9267 14.6009 13.218 14.2862 13.4824L14.5852 13.9991C14.747 14.2792 14.65 14.6408 14.3699 14.8025L13.2819 15.4308C13.0018 15.5926 12.6402 15.4955 12.4784 15.2154L12.1805 14.6999C11.7988 14.8394 11.4016 14.9464 10.9909 15.0179V15.6138C10.9909 15.9374 10.7265 16.2018 10.4028 16.2018H9.14747C8.82384 16.2018 8.55939 15.9374 8.55939 15.6138V15.0179C8.14985 14.9465 7.75146 14.8394 7.36985 14.6999L7.07189 15.2154C6.91013 15.4955 6.54857 15.5925 6.26845 15.4308L5.18157 14.8025C4.90146 14.6408 4.80439 14.2792 4.96622 13.9991L5.26411 13.4824C4.94943 13.2179 4.65818 12.9267 4.39482 12.6121L3.87704 12.9111C3.597 13.0729 3.2354 12.9758 3.07364 12.6957L2.4454 11.6077C2.28357 11.3276 2.38067 10.966 2.66079 10.8043L3.17634 10.5063C3.03685 10.1246 2.92974 9.72742 2.85829 9.31676H2.26239C1.9388 9.31676 1.67435 9.05227 1.67435 8.72871V7.47328C1.67435 7.14965 1.9388 6.88527 2.26239 6.88527H2.85829C2.9297 6.4757 3.03681 6.07723 3.17634 5.6957L2.66079 5.39762C2.38067 5.23586 2.2836 4.87434 2.4454 4.59426L3.07364 3.50746C3.2354 3.22727 3.597 3.13016 3.87704 3.29203L4.39372 3.59C4.65817 3.27527 4.94943 2.98402 5.26411 2.71949L4.96622 2.20289C4.80439 1.92285 4.90146 1.56117 5.18157 1.39945L6.26845 0.77125C6.54853 0.609336 6.91013 0.706445 7.07189 0.986602L7.36985 1.50207C7.75149 1.36266 8.14985 1.25547 8.55939 1.1841V0.588125C8.55939 0.26457 8.82384 0 9.14747 0H10.4028C10.7265 0 10.9909 0.26457 10.9909 0.588125V1.18406Z" fill="#61A2F9"/>
<path fill-rule="evenodd" clip-rule="evenodd" d="M10.9909 1.18406C11.4016 1.25539 11.7988 1.36258 12.1805 1.50203L12.4784 0.986562C12.6402 0.706406 13.0018 0.609336 13.2819 0.771211L14.3699 1.39941C14.65 1.56117 14.747 1.92281 14.5852 2.20285L14.2862 2.72059C14.6009 2.98398 14.8921 3.27523 15.1566 3.58996L15.6733 3.29199C15.9533 3.13008 16.3149 3.22723 16.4767 3.50742L17.1049 4.59422C17.2668 4.87434 17.1697 5.23586 16.8896 5.39758L16.374 5.69566C16.5135 6.07723 16.6207 6.47566 16.6921 6.88523H17.288C17.6116 6.88523 17.876 7.14961 17.876 7.47324V8.72867C17.876 9.05223 17.6116 9.31672 17.288 9.31672H16.6921C16.6207 9.72738 16.5136 10.1246 16.374 10.5074L16.8896 10.8043C17.1697 10.966 17.2668 11.3276 17.1049 11.6077L16.4767 12.6957C16.3149 12.9758 15.9533 13.0728 15.6733 12.9111L15.1566 12.6121C14.8921 12.9267 14.6009 13.218 14.2862 13.4824L14.5852 13.9991C14.747 14.2792 14.65 14.6408 14.3699 14.8025L13.2819 15.4308C13.0018 15.5926 12.6402 15.4955 12.4784 15.2154L12.1805 14.6999C11.7988 14.8394 11.4016 14.9464 10.9909 15.0179V15.6138C10.9909 15.9374 10.7265 16.2018 10.4028 16.2018H9.14747C8.82384 16.2018 8.55939 15.9374 8.55939 15.6138V15.1106C12.5208 15.2388 15.8049 12.0675 15.8049 8.10152C15.8049 4.13449 12.5208 0.961953 8.55939 1.09254V0.588125C8.55939 0.26457 8.82384 0 9.14747 0H10.4028C10.7265 0 10.9909 0.26457 10.9909 0.588125V1.18406Z" fill="#5490F9"/>
<path fill-rule="evenodd" clip-rule="evenodd" d="M9.77575 11.0429C11.3961 11.0429 12.7173 9.7218 12.7173 8.10144C12.7173 6.48004 11.3961 5.15879 9.77575 5.15879C8.15434 5.15879 6.83313 6.48004 6.83313 8.10144C6.83309 9.7218 8.15434 11.0429 9.77575 11.0429Z" fill="#F9F7F8"/>
<path fill-rule="evenodd" clip-rule="evenodd" d="M9.77576 5.15879C11.4005 5.15879 12.7173 6.47676 12.7173 8.10144C12.7173 9.72625 11.4005 11.0429 9.77576 11.0429C9.60729 11.0429 9.44322 11.0285 9.28369 11.0016C10.6741 10.7673 11.733 9.55762 11.733 8.10144C11.733 6.64406 10.6741 5.43441 9.28369 5.20008C9.44322 5.17336 9.60729 5.15879 9.77576 5.15879Z" fill="#EBE8FA"/>
<path d="M9.798 3.5575C9.63625 3.5575 9.50453 3.42582 9.50453 3.26402C9.50453 3.10113 9.63625 2.96938 9.798 2.96938C10.0134 2.97051 10.2265 2.98504 10.4353 3.0118C10.6484 3.03867 10.8571 3.07992 11.0613 3.13231C11.2186 3.17367 11.3134 3.33324 11.2721 3.49059C11.232 3.64785 11.0713 3.74277 10.914 3.70262C10.7321 3.65461 10.5468 3.61883 10.3605 3.59543C10.1752 3.57094 9.98777 3.55859 9.798 3.5575ZM12.0655 4.17906C11.9239 4.09652 11.877 3.91574 11.9596 3.77508C12.0411 3.63445 12.2218 3.58652 12.3624 3.66906C12.5432 3.77508 12.7206 3.89328 12.8914 4.02391C13.0598 4.15231 13.2206 4.29176 13.3723 4.44121C13.4884 4.55512 13.4894 4.74152 13.3757 4.85758C13.2618 4.97359 13.0755 4.97578 12.9594 4.8609C12.8255 4.73024 12.6838 4.60641 12.5342 4.49262C12.3869 4.37988 12.2307 4.27504 12.0655 4.17906ZM13.7205 5.84848C13.6401 5.70672 13.6892 5.52707 13.8309 5.44566C13.9716 5.36531 14.1523 5.41438 14.2327 5.555C14.3376 5.73809 14.4313 5.92891 14.5139 6.1275C14.5942 6.32055 14.6634 6.52137 14.7214 6.73008C14.7639 6.88746 14.6723 7.04922 14.5161 7.0927C14.3588 7.13617 14.197 7.04363 14.1534 6.88746C14.1032 6.70547 14.0419 6.52805 13.9693 6.35395C13.8978 6.17981 13.8141 6.01145 13.7205 5.84848ZM14.3186 8.12379C14.3186 7.96199 14.4503 7.83031 14.6132 7.83031C14.775 7.83031 14.9066 7.96199 14.9066 8.12379C14.9066 8.34027 14.8922 8.55234 14.8653 8.76102C14.8375 8.97406 14.7973 9.18383 14.7437 9.38703C14.7036 9.54434 14.5429 9.63922 14.3855 9.59781C14.2282 9.55762 14.1334 9.39695 14.1746 9.23965C14.2215 9.05777 14.2572 8.8725 14.2818 8.68731C14.3052 8.50094 14.3186 8.31356 14.3186 8.12379ZM13.6993 10.3913C13.7807 10.2507 13.9615 10.2038 14.101 10.2864C14.2416 10.3679 14.2884 10.5486 14.2059 10.6881C14.0977 10.8734 13.9793 11.0508 13.8521 11.2171C13.7238 11.3856 13.5843 11.5463 13.4348 11.698C13.3209 11.8141 13.1346 11.8152 13.0186 11.7013C12.9025 11.5875 12.9014 11.4012 13.0152 11.2852C13.1458 11.1512 13.2696 11.0095 13.3834 10.8599C13.4995 10.7082 13.6044 10.552 13.6993 10.3913ZM12.0276 12.0462C12.1693 11.9659 12.349 12.015 12.4305 12.1555C12.5108 12.2973 12.4617 12.4781 12.3211 12.5584C12.1381 12.6621 11.9472 12.757 11.7486 12.8395C11.5556 12.9199 11.3548 12.9891 11.146 13.046C10.9887 13.0895 10.8269 12.998 10.7834 12.8406C10.741 12.6844 10.8325 12.5226 10.9887 12.4791C11.1706 12.4289 11.348 12.3675 11.5221 12.2949C11.6962 12.2225 11.8647 12.14 12.0276 12.0462ZM9.7523 12.6442C9.9141 12.6442 10.0458 12.776 10.0458 12.9389C10.0458 13.1007 9.9141 13.2323 9.7523 13.2323C9.53695 13.2312 9.32379 13.2179 9.11625 13.1911C8.90199 13.1632 8.69324 13.123 8.48902 13.0695C8.33172 13.0293 8.238 12.8686 8.27816 12.7113C8.31945 12.554 8.48007 12.4591 8.6375 12.5004C8.81824 12.5472 9.00351 12.5829 9.18984 12.6074C9.37511 12.631 9.56257 12.6432 9.7523 12.6442ZM7.4859 12.025C7.62539 12.1065 7.67226 12.2872 7.59074 12.4267C7.5082 12.5673 7.32859 12.6142 7.18793 12.5317C7.00269 12.4234 6.8264 12.3051 6.65902 12.1779C6.49164 12.0495 6.33093 11.9101 6.17808 11.7605C6.06203 11.6466 6.06093 11.4603 6.17472 11.3443C6.28855 11.2282 6.47488 11.2271 6.59097 11.341C6.72492 11.4715 6.8666 11.5954 7.01726 11.7104C7.16785 11.8252 7.32519 11.9302 7.4859 12.025ZM5.82988 10.3533C5.91023 10.495 5.86109 10.6759 5.72054 10.7563C5.57882 10.8377 5.39804 10.7886 5.31773 10.6468C5.21394 10.4639 5.1191 10.273 5.03652 10.0745C4.95617 9.88137 4.88699 9.68055 4.83007 9.47184C4.78652 9.31445 4.87808 9.15274 5.03539 9.1091C5.1916 9.06668 5.35339 9.15828 5.39695 9.31445C5.44714 9.49633 5.50855 9.67375 5.58109 9.84789C5.65359 10.0219 5.73613 10.1904 5.82988 10.3533ZM5.23179 8.07809C5.23179 8.23988 5.10007 8.37156 4.93718 8.37156C4.77535 8.37156 4.64371 8.23988 4.64371 8.07809C4.6448 7.86273 4.6582 7.64953 4.685 7.44199C4.71289 7.2277 4.75418 7.01898 4.8066 6.81481C4.84679 6.65754 5.0075 6.56375 5.1648 6.60391C5.32214 6.6452 5.41703 6.80594 5.37574 6.96332C5.32886 7.14406 5.29312 7.32922 5.26859 7.5157C5.24515 7.70086 5.23289 7.88832 5.23179 8.07809ZM5.85218 5.81168C5.76964 5.95113 5.58882 5.99797 5.44937 5.91652C5.30879 5.83398 5.26191 5.65438 5.34445 5.51371C5.45269 5.32852 5.57101 5.15219 5.69824 4.98477C5.82656 4.81746 5.96605 4.65672 6.11554 4.50383C6.22937 4.38781 6.41574 4.38668 6.53179 4.50043C6.64785 4.61426 6.65004 4.8007 6.53511 4.91668C6.40457 5.05066 6.28066 5.19234 6.16691 5.34297C6.05089 5.49359 5.94597 5.6509 5.85218 5.81168ZM7.52269 4.15566C7.38101 4.23602 7.20132 4.18805 7.11988 4.04625C7.03953 3.90457 7.08863 3.72492 7.22921 3.64344C7.41226 3.53961 7.60308 3.44598 7.80172 3.36219C7.99476 3.28301 8.19558 3.21274 8.40429 3.15582C8.56164 3.11223 8.72339 3.20379 8.76695 3.36109C8.81047 3.51731 8.71789 3.68027 8.56164 3.72274C8.37972 3.77289 8.2023 3.83422 8.0282 3.9068C7.85523 3.97938 7.68566 4.06191 7.52269 4.15566Z" fill="#365E7D"/>
<path fill-rule="evenodd" clip-rule="evenodd" d="M9.99443 19.93L13.1937 16.636C13.3254 16.4998 13.5017 16.4093 13.7283 16.4093H18.1762C18.3313 16.4093 18.3749 16.2988 18.2633 16.1918L10.0034 8.31797C9.86724 8.18844 9.77576 8.23652 9.77576 8.41617V19.8408C9.77576 20.0048 9.87396 20.0551 9.99443 19.93Z" fill="#CBE2FF"/>
<path fill-rule="evenodd" clip-rule="evenodd" d="M17.192 16.4093H18.1763C18.3314 16.4093 18.3749 16.2988 18.2633 16.1918L10.0034 8.31797C9.86724 8.18844 9.77576 8.23652 9.77576 8.41617V9.03883L17.2791 16.1917C17.3907 16.2988 17.3472 16.4093 17.192 16.4093Z" fill="#BED8FB"/>
</svg>
