<svg width="20" height="20" viewBox="0 0 20 20" fill="none" xmlns="http://www.w3.org/2000/svg">
<g clip-path="url(#clip0_0_215)">
<path d="M19.995 9.69827C19.9231 7.27398 18.9884 5.06671 17.4873 3.37241H17.0897L17.0736 2.93284C15.7907 1.64902 14.1608 0.711829 12.3363 0.275071L11.3884 0.180969H11.1428L10.2616 0.462649L7.14281 2.41437L5.59352 5.85503L4.8893 7.76234V12.1371L7.10258 17.3038L9.55734 19.336L10.9395 19.8332L11.8377 19.7248H12.3364C14.161 19.288 15.7909 18.3509 17.0738 17.0669L17.0523 16.6801L17.4873 16.6276C18.9884 14.9333 19.923 12.726 19.995 10.3017L19.752 9.99999L19.995 9.69827Z" fill="#5291D9"/>
<path d="M5.45039 10C5.45039 5.68426 7.96684 1.95633 11.6124 0.203242L11.3884 0.181015H8.88332L7.66367 0.275078C5.84211 0.711093 4.21461 1.64586 2.9327 2.92644C2.93219 2.93406 2.93191 2.93836 2.93191 2.93836L2.85711 3.27957L2.51273 3.3723C1.01156 5.0666 0.0769142 7.27391 0.00503922 9.69824L0.21625 9.93457L0.00503922 10.3016C0.0769142 12.7259 1.01156 14.9333 2.51273 16.6276L2.87723 16.6398L2.93008 17.0634L2.92836 17.0691C4.21094 18.3519 5.84004 19.2883 7.66359 19.7248H9.03422L10.7244 19.8591L11.5397 19.7607C7.93355 17.9933 5.45039 14.2869 5.45039 10Z" fill="#0972D0"/>
<path d="M15.9964 4.60844C16.5307 4.24504 17.0291 3.8325 17.4875 3.37242C17.354 3.22172 17.2165 3.07461 17.0743 2.93223L17.0736 2.93285C17.0724 2.93406 17.0711 2.93531 17.0699 2.93656C16.659 3.35004 16.2157 3.72215 15.7454 4.05121C14.9943 2.49668 13.8534 1.05227 12.3363 0.275078C11.5867 0.0956641 10.8046 0 10 0C9.19539 0 8.41328 0.0956641 7.66367 0.275078C6.14379 1.05367 5.00375 2.50062 4.25461 4.05125C3.78492 3.72266 3.34227 3.35117 2.93191 2.9384L2.92586 2.93211C2.78355 3.07453 2.64602 3.22168 2.51246 3.37246C2.97094 3.8325 3.46926 4.24504 4.00359 4.60848C3.3657 6.13004 3.00895 7.87418 2.97344 9.6982H0.00492187C0.00195313 9.79848 0 9.89898 0 10C0 10.101 0.00195313 10.2015 0.00492187 10.3018H2.97344C3.00891 12.1259 3.3657 13.87 4.00363 15.3916C3.46984 15.7548 2.9716 16.1673 2.5125 16.6276C2.64602 16.7783 2.78352 16.9254 2.92578 17.0679L2.93004 17.0634C3.3409 16.6499 3.78418 16.2779 4.25457 15.9487C5.00559 17.5033 6.1466 18.9477 7.66355 19.7248C8.4132 19.9043 9.19539 20 10 20C10.8046 20 11.5868 19.9043 12.3364 19.7249C13.8539 18.9475 14.9948 17.5025 15.7454 15.9487C16.2143 16.2768 16.6562 16.6475 17.0659 17.0594L17.0739 17.0681C17.2163 16.9256 17.3539 16.7784 17.4875 16.6275C17.0291 16.1675 16.5307 15.755 15.9964 15.3915C16.6343 13.87 16.9911 12.1258 17.0266 10.3018H19.9951C19.998 10.2015 20 10.101 20 10C20 9.89898 19.998 9.79848 19.9951 9.6982H17.0266C16.9911 7.87414 16.6343 6.13 15.9964 4.60844ZM15.2361 4.38359C14.4579 4.85816 13.6155 5.22176 12.7287 5.46539C12.4342 3.31543 11.9237 1.46781 11.2125 0.475703C12.8646 0.953789 14.2941 2.38902 15.2361 4.38359ZM7.57953 9.6982C7.58938 8.48066 7.65848 7.30148 7.78199 6.20605C9.2359 6.50883 10.7627 6.5091 12.218 6.20605C12.3415 7.30152 12.4106 8.4807 12.4205 9.6982H7.57953ZM12.4205 10.3018C12.4106 11.5193 12.3415 12.6985 12.218 13.7939C10.7641 13.4912 9.23727 13.4909 7.78199 13.7939C7.65848 12.6985 7.58938 11.5193 7.57953 10.3018H12.4205ZM10 0.301836C10.4339 0.301836 11.0912 1.01281 11.6347 3.00824C11.8446 3.77922 12.0155 4.65641 12.1438 5.60695C10.7403 5.90344 9.26266 5.90402 7.85621 5.60699C7.98449 4.65641 8.15531 3.77922 8.36531 3.00824C8.90879 1.01281 9.56609 0.301836 10 0.301836ZM8.7875 0.475742C8.07633 1.46781 7.56582 3.31547 7.27129 5.46543C6.38445 5.22184 5.54207 4.85824 4.76391 4.38367C5.70594 2.38906 7.13539 0.953789 8.7875 0.475742ZM4.5207 4.9382C5.3477 5.43117 6.24465 5.81129 7.19527 6.06637C7.0602 7.23391 6.98641 8.47203 6.97598 9.6982H3.57727C3.61266 7.9582 3.95316 6.33227 4.5207 4.9382ZM3.57727 10.3018H6.97602C6.98645 11.5279 7.06023 12.7661 7.19531 13.9336C6.2475 14.188 5.3502 14.5673 4.52074 15.0618C3.95316 13.6678 3.61266 12.0418 3.57727 10.3018ZM4.76391 15.6164C5.54207 15.1418 6.38445 14.7782 7.27129 14.5346C7.56586 16.6845 8.07633 18.5322 8.7875 19.5243C7.13539 19.0462 5.70594 17.611 4.76391 15.6164ZM10 19.6982C9.56609 19.6982 8.90879 18.9872 8.36531 16.9918C8.15535 16.2208 7.98449 15.3436 7.85621 14.393C9.25973 14.0966 10.7373 14.0959 12.1438 14.393C12.0155 15.3436 11.8447 16.2208 11.6347 16.9918C11.0912 18.9872 10.4339 19.6982 10 19.6982ZM11.2125 19.5243C11.9237 18.5322 12.4342 16.6846 12.7287 14.5346C13.6155 14.7783 14.4579 15.1419 15.2361 15.6164C14.294 17.611 12.8646 19.0462 11.2125 19.5243ZM15.4793 15.0618C14.6539 14.5698 13.7573 14.1892 12.8047 13.9336C12.9398 12.7661 13.0136 11.528 13.024 10.3018H16.4227C16.3873 12.0418 16.0468 13.6677 15.4793 15.0618ZM13.024 9.6982C13.0136 8.47207 12.9398 7.23391 12.8047 6.06637C13.7566 5.81094 14.6534 5.43051 15.4793 4.9382C16.0468 6.33227 16.3873 7.9582 16.4227 9.69816H13.024V9.6982Z" fill="#00D2FC"/>
</g>
<defs>
<clipPath id="clip0_0_215">
<rect width="20" height="20" fill="white"/>
</clipPath>
</defs>
</svg>
